solid lasermech_axis
   facet normal 7.071068e-001 -9.393608e-011 -7.071068e-001
      outer loop
         vertex 9.932575e-002 2.030000e-002 2.467613e+000
         vertex 1.000329e-001 2.999995e-004 2.468320e+000
         vertex 6.750595e-002 2.999995e-004 2.435793e+000
      endloop
   endfacet
   facet normal 7.071068e-001 -9.393608e-011 -7.071068e-001
      outer loop
         vertex 1.000329e-001 2.999995e-004 2.468320e+000
         vertex 9.932575e-002 2.030000e-002 2.467613e+000
         vertex 1.000329e-001 6.030000e-002 2.468320e+000
      endloop
   endfacet
   facet normal 7.071068e-001 -9.393608e-011 -7.071068e-001
      outer loop
         vertex 1.000329e-001 6.030000e-002 2.468320e+000
         vertex 9.932575e-002 2.030000e-002 2.467613e+000
         vertex 9.932575e-002 4.030000e-002 2.467613e+000
      endloop
   endfacet
   facet normal 7.071068e-001 -9.393608e-011 -7.071068e-001
      outer loop
         vertex 1.000329e-001 6.030000e-002 2.468320e+000
         vertex 9.932575e-002 4.030000e-002 2.467613e+000
         vertex 6.750595e-002 6.030000e-002 2.435793e+000
      endloop
   endfacet
   facet normal 7.071068e-001 -9.393608e-011 -7.071068e-001
      outer loop
         vertex 6.750595e-002 6.030000e-002 2.435793e+000
         vertex 9.932575e-002 4.030000e-002 2.467613e+000
         vertex 9.225468e-002 4.030000e-002 2.460542e+000
      endloop
   endfacet
   facet normal 7.071068e-001 -9.393608e-011 -7.071068e-001
      outer loop
         vertex 6.750595e-002 6.030000e-002 2.435793e+000
         vertex 9.225468e-002 4.030000e-002 2.460542e+000
         vertex 6.750595e-002 2.999995e-004 2.435793e+000
      endloop
   endfacet
   facet normal 7.071068e-001 -9.393608e-011 -7.071068e-001
      outer loop
         vertex 6.750595e-002 2.999995e-004 2.435793e+000
         vertex 9.225468e-002 4.030000e-002 2.460542e+000
         vertex 9.225468e-002 2.030000e-002 2.460542e+000
      endloop
   endfacet
   facet normal 7.071068e-001 -9.393608e-011 -7.071068e-001
      outer loop
         vertex 6.750595e-002 2.999995e-004 2.435793e+000
         vertex 9.225468e-002 2.030000e-002 2.460542e+000
         vertex 9.932575e-002 2.030000e-002 2.467613e+000
      endloop
   endfacet
   facet normal -7.071068e-001 9.393608e-011 7.071068e-001
      outer loop
         vertex 6.510743e-002 2.999995e-004 2.446123e+000
         vertex 8.970345e-002 2.999995e-004 2.470719e+000
         vertex 6.510743e-002 6.030000e-002 2.446123e+000
      endloop
   endfacet
   facet normal -7.071068e-001 9.393608e-011 7.071068e-001
      outer loop
         vertex 6.510743e-002 6.030000e-002 2.446123e+000
         vertex 8.970345e-002 2.999995e-004 2.470719e+000
         vertex 8.970345e-002 6.030000e-002 2.470719e+000
      endloop
   endfacet
   facet normal 9.659258e-001 -1.283201e-010 2.588190e-001
      outer loop
         vertex 6.262691e-002 2.999995e-004 2.455380e+000
         vertex 6.510743e-002 2.999995e-004 2.446123e+000
         vertex 6.262691e-002 6.030000e-002 2.455380e+000
      endloop
   endfacet
   facet normal 9.659258e-001 -1.283201e-010 2.588190e-001
      outer loop
         vertex 6.262691e-002 6.030000e-002 2.455380e+000
         vertex 6.510743e-002 2.999995e-004 2.446123e+000
         vertex 6.510743e-002 6.030000e-002 2.446123e+000
      endloop
   endfacet
   facet normal 7.071068e-001 -9.393725e-011 7.071068e-001
      outer loop
         vertex 6.071772e-002 2.999995e-004 2.457289e+000
         vertex 6.262691e-002 2.999995e-004 2.455380e+000
         vertex 6.071772e-002 6.030000e-002 2.457289e+000
      endloop
   endfacet
   facet normal 7.071068e-001 -9.393725e-011 7.071068e-001
      outer loop
         vertex 6.071772e-002 6.030000e-002 2.457289e+000
         vertex 6.262691e-002 2.999995e-004 2.455380e+000
         vertex 6.262691e-002 6.030000e-002 2.455380e+000
      endloop
   endfacet
   facet normal -7.071068e-001 9.393608e-011 7.071068e-001
      outer loop
         vertex 5.336381e-002 2.999995e-004 2.449935e+000
         vertex 6.071772e-002 2.999995e-004 2.457289e+000
         vertex 5.336381e-002 6.030000e-002 2.449935e+000
      endloop
   endfacet
   facet normal -7.071068e-001 9.393608e-011 7.071068e-001
      outer loop
         vertex 5.336381e-002 6.030000e-002 2.449935e+000
         vertex 6.071772e-002 2.999995e-004 2.457289e+000
         vertex 6.071772e-002 6.030000e-002 2.457289e+000
      endloop
   endfacet
   facet normal -7.071068e-001 9.393725e-011 -7.071068e-001
      outer loop
         vertex 6.750595e-002 2.999995e-004 2.435793e+000
         vertex 5.336381e-002 2.999995e-004 2.449935e+000
         vertex 6.750595e-002 6.030000e-002 2.435793e+000
      endloop
   endfacet
   facet normal -7.071068e-001 9.393725e-011 -7.071068e-001
      outer loop
         vertex 6.750595e-002 6.030000e-002 2.435793e+000
         vertex 5.336381e-002 2.999995e-004 2.449935e+000
         vertex 5.336381e-002 6.030000e-002 2.449935e+000
      endloop
   endfacet
   facet normal -1.328465e-010 -1.000000e+000 -8.242985e-016
      outer loop
         vertex 6.510743e-002 2.999995e-004 2.446123e+000
         vertex 6.262691e-002 2.999995e-004 2.455380e+000
         vertex 6.071772e-002 2.999995e-004 2.457289e+000
      endloop
   endfacet
   facet normal -1.328465e-010 -1.000000e+000 -8.242985e-016
      outer loop
         vertex 8.044600e-002 2.999995e-004 2.473199e+000
         vertex 8.970345e-002 2.999995e-004 2.470719e+000
         vertex 7.853681e-002 2.999995e-004 2.475108e+000
      endloop
   endfacet
   facet normal -1.328465e-010 -1.000000e+000 -8.242985e-016
      outer loop
         vertex 7.853681e-002 2.999995e-004 2.475108e+000
         vertex 8.970345e-002 2.999995e-004 2.470719e+000
         vertex 8.589073e-002 2.999995e-004 2.482462e+000
      endloop
   endfacet
   facet normal -1.328465e-010 -1.000000e+000 -8.242985e-016
      outer loop
         vertex 6.071772e-002 2.999995e-004 2.457289e+000
         vertex 5.336381e-002 2.999995e-004 2.449935e+000
         vertex 6.510743e-002 2.999995e-004 2.446123e+000
      endloop
   endfacet
   facet normal -1.328465e-010 -1.000000e+000 -8.242985e-016
      outer loop
         vertex 6.510743e-002 2.999995e-004 2.446123e+000
         vertex 5.336381e-002 2.999995e-004 2.449935e+000
         vertex 6.750595e-002 2.999995e-004 2.435793e+000
      endloop
   endfacet
   facet normal -1.328465e-010 -1.000000e+000 -8.242985e-016
      outer loop
         vertex 6.510743e-002 2.999995e-004 2.446123e+000
         vertex 6.750595e-002 2.999995e-004 2.435793e+000
         vertex 8.970345e-002 2.999995e-004 2.470719e+000
      endloop
   endfacet
   facet normal -1.328465e-010 -1.000000e+000 -8.242985e-016
      outer loop
         vertex 8.970345e-002 2.999995e-004 2.470719e+000
         vertex 6.750595e-002 2.999995e-004 2.435793e+000
         vertex 1.000329e-001 2.999995e-004 2.468320e+000
      endloop
   endfacet
   facet normal -1.328465e-010 -1.000000e+000 -8.242985e-016
      outer loop
         vertex 8.970345e-002 2.999995e-004 2.470719e+000
         vertex 1.000329e-001 2.999995e-004 2.468320e+000
         vertex 8.589073e-002 2.999995e-004 2.482462e+000
      endloop
   endfacet
   facet normal 1.328465e-010 1.000000e+000 8.242985e-016
      outer loop
         vertex 8.970345e-002 6.030000e-002 2.470719e+000
         vertex 8.044600e-002 6.030000e-002 2.473199e+000
         vertex 7.853681e-002 6.030000e-002 2.475108e+000
      endloop
   endfacet
   facet normal 1.328465e-010 1.000000e+000 8.242985e-016
      outer loop
         vertex 6.262691e-002 6.030000e-002 2.455380e+000
         vertex 6.510743e-002 6.030000e-002 2.446123e+000
         vertex 6.071772e-002 6.030000e-002 2.457289e+000
      endloop
   endfacet
   facet normal 1.328465e-010 1.000000e+000 8.242985e-016
      outer loop
         vertex 6.071772e-002 6.030000e-002 2.457289e+000
         vertex 6.510743e-002 6.030000e-002 2.446123e+000
         vertex 5.336381e-002 6.030000e-002 2.449935e+000
      endloop
   endfacet
   facet normal 1.328465e-010 1.000000e+000 8.242985e-016
      outer loop
         vertex 7.853681e-002 6.030000e-002 2.475108e+000
         vertex 8.589073e-002 6.030000e-002 2.482462e+000
         vertex 8.970345e-002 6.030000e-002 2.470719e+000
      endloop
   endfacet
   facet normal 1.328465e-010 1.000000e+000 8.242985e-016
      outer loop
         vertex 8.970345e-002 6.030000e-002 2.470719e+000
         vertex 8.589073e-002 6.030000e-002 2.482462e+000
         vertex 1.000329e-001 6.030000e-002 2.468320e+000
      endloop
   endfacet
   facet normal 1.328465e-010 1.000000e+000 8.242985e-016
      outer loop
         vertex 8.970345e-002 6.030000e-002 2.470719e+000
         vertex 1.000329e-001 6.030000e-002 2.468320e+000
         vertex 6.510743e-002 6.030000e-002 2.446123e+000
      endloop
   endfacet
   facet normal 1.328465e-010 1.000000e+000 8.242985e-016
      outer loop
         vertex 6.510743e-002 6.030000e-002 2.446123e+000
         vertex 1.000329e-001 6.030000e-002 2.468320e+000
         vertex 6.750595e-002 6.030000e-002 2.435793e+000
      endloop
   endfacet
   facet normal 1.328465e-010 1.000000e+000 8.242985e-016
      outer loop
         vertex 6.510743e-002 6.030000e-002 2.446123e+000
         vertex 6.750595e-002 6.030000e-002 2.435793e+000
         vertex 5.336381e-002 6.030000e-002 2.449935e+000
      endloop
   endfacet
   facet normal -2.588190e-001 3.438400e-011 -9.659258e-001
      outer loop
         vertex 8.970345e-002 2.999995e-004 2.470719e+000
         vertex 8.044600e-002 2.999995e-004 2.473199e+000
         vertex 8.970345e-002 6.030000e-002 2.470719e+000
      endloop
   endfacet
   facet normal -2.588190e-001 3.438400e-011 -9.659258e-001
      outer loop
         vertex 8.970345e-002 6.030000e-002 2.470719e+000
         vertex 8.044600e-002 2.999995e-004 2.473199e+000
         vertex 8.044600e-002 6.030000e-002 2.473199e+000
      endloop
   endfacet
   facet normal -7.071068e-001 9.393725e-011 -7.071068e-001
      outer loop
         vertex 8.044600e-002 2.999995e-004 2.473199e+000
         vertex 7.853681e-002 2.999995e-004 2.475108e+000
         vertex 8.044600e-002 6.030000e-002 2.473199e+000
      endloop
   endfacet
   facet normal -7.071068e-001 9.393725e-011 -7.071068e-001
      outer loop
         vertex 8.044600e-002 6.030000e-002 2.473199e+000
         vertex 7.853681e-002 2.999995e-004 2.475108e+000
         vertex 7.853681e-002 6.030000e-002 2.475108e+000
      endloop
   endfacet
   facet normal -7.071068e-001 9.393608e-011 7.071068e-001
      outer loop
         vertex 7.853681e-002 2.999995e-004 2.475108e+000
         vertex 8.589073e-002 2.999995e-004 2.482462e+000
         vertex 7.853681e-002 6.030000e-002 2.475108e+000
      endloop
   endfacet
   facet normal -7.071068e-001 9.393608e-011 7.071068e-001
      outer loop
         vertex 7.853681e-002 6.030000e-002 2.475108e+000
         vertex 8.589073e-002 2.999995e-004 2.482462e+000
         vertex 8.589073e-002 6.030000e-002 2.482462e+000
      endloop
   endfacet
   facet normal 7.071068e-001 -9.393725e-011 7.071068e-001
      outer loop
         vertex 8.589073e-002 2.999995e-004 2.482462e+000
         vertex 1.000329e-001 2.999995e-004 2.468320e+000
         vertex 8.589073e-002 6.030000e-002 2.482462e+000
      endloop
   endfacet
   facet normal 7.071068e-001 -9.393725e-011 7.071068e-001
      outer loop
         vertex 8.589073e-002 6.030000e-002 2.482462e+000
         vertex 1.000329e-001 2.999995e-004 2.468320e+000
         vertex 1.000329e-001 6.030000e-002 2.468320e+000
      endloop
   endfacet
   facet normal -7.071068e-001 9.393725e-011 -7.071068e-001
      outer loop
         vertex 1.332669e-001 2.030000e-002 2.419530e+000
         vertex 9.225468e-002 2.030000e-002 2.460542e+000
         vertex 1.332669e-001 4.030000e-002 2.419530e+000
      endloop
   endfacet
   facet normal -7.071068e-001 9.393725e-011 -7.071068e-001
      outer loop
         vertex 1.332669e-001 4.030000e-002 2.419530e+000
         vertex 9.225468e-002 2.030000e-002 2.460542e+000
         vertex 9.225468e-002 4.030000e-002 2.460542e+000
      endloop
   endfacet
   facet normal 9.658940e-015 8.242985e-016 -1.000000e+000
      outer loop
         vertex 1.654090e-001 2.030000e-002 2.419530e+000
         vertex 1.332669e-001 2.030000e-002 2.419530e+000
         vertex 1.654090e-001 4.030000e-002 2.419530e+000
      endloop
   endfacet
   facet normal 9.658940e-015 8.242985e-016 -1.000000e+000
      outer loop
         vertex 1.654090e-001 4.030000e-002 2.419530e+000
         vertex 1.332669e-001 2.030000e-002 2.419530e+000
         vertex 1.332669e-001 4.030000e-002 2.419530e+000
      endloop
   endfacet
   facet normal 7.071068e-001 -9.393725e-011 7.071068e-001
      outer loop
         vertex 1.565890e-001 2.030000e-002 2.428350e+000
         vertex 1.654090e-001 2.030000e-002 2.419530e+000
         vertex 1.565890e-001 4.030000e-002 2.428350e+000
      endloop
   endfacet
   facet normal 7.071068e-001 -9.393725e-011 7.071068e-001
      outer loop
         vertex 1.565890e-001 4.030000e-002 2.428350e+000
         vertex 1.654090e-001 2.030000e-002 2.419530e+000
         vertex 1.654090e-001 4.030000e-002 2.419530e+000
      endloop
   endfacet
   facet normal -9.658940e-015 -8.242985e-016 1.000000e+000
      outer loop
         vertex 1.385890e-001 2.030000e-002 2.428350e+000
         vertex 1.565890e-001 2.030000e-002 2.428350e+000
         vertex 1.385890e-001 4.030000e-002 2.428350e+000
      endloop
   endfacet
   facet normal -9.658940e-015 -8.242985e-016 1.000000e+000
      outer loop
         vertex 1.385890e-001 4.030000e-002 2.428350e+000
         vertex 1.565890e-001 2.030000e-002 2.428350e+000
         vertex 1.565890e-001 4.030000e-002 2.428350e+000
      endloop
   endfacet
   facet normal 7.071068e-001 -9.393725e-011 7.071068e-001
      outer loop
         vertex 9.932575e-002 2.030000e-002 2.467613e+000
         vertex 1.385890e-001 2.030000e-002 2.428350e+000
         vertex 9.932575e-002 4.030000e-002 2.467613e+000
      endloop
   endfacet
   facet normal 7.071068e-001 -9.393725e-011 7.071068e-001
      outer loop
         vertex 9.932575e-002 4.030000e-002 2.467613e+000
         vertex 1.385890e-001 2.030000e-002 2.428350e+000
         vertex 1.385890e-001 4.030000e-002 2.428350e+000
      endloop
   endfacet
   facet normal -1.328465e-010 -1.000000e+000 -8.242985e-016
      outer loop
         vertex 9.932575e-002 2.030000e-002 2.467613e+000
         vertex 9.225468e-002 2.030000e-002 2.460542e+000
         vertex 1.385890e-001 2.030000e-002 2.428350e+000
      endloop
   endfacet
   facet normal -1.328465e-010 -1.000000e+000 -8.242985e-016
      outer loop
         vertex 1.385890e-001 2.030000e-002 2.428350e+000
         vertex 9.225468e-002 2.030000e-002 2.460542e+000
         vertex 1.332669e-001 2.030000e-002 2.419530e+000
      endloop
   endfacet
   facet normal -1.328465e-010 -1.000000e+000 -8.242985e-016
      outer loop
         vertex 1.385890e-001 2.030000e-002 2.428350e+000
         vertex 1.332669e-001 2.030000e-002 2.419530e+000
         vertex 1.565890e-001 2.030000e-002 2.428350e+000
      endloop
   endfacet
   facet normal -1.328465e-010 -1.000000e+000 -8.242985e-016
      outer loop
         vertex 1.565890e-001 2.030000e-002 2.428350e+000
         vertex 1.332669e-001 2.030000e-002 2.419530e+000
         vertex 1.654090e-001 2.030000e-002 2.419530e+000
      endloop
   endfacet
   facet normal 1.328465e-010 1.000000e+000 8.242985e-016
      outer loop
         vertex 1.565890e-001 4.030000e-002 2.428350e+000
         vertex 1.654090e-001 4.030000e-002 2.419530e+000
         vertex 1.385890e-001 4.030000e-002 2.428350e+000
      endloop
   endfacet
   facet normal 1.328465e-010 1.000000e+000 8.242985e-016
      outer loop
         vertex 1.385890e-001 4.030000e-002 2.428350e+000
         vertex 1.654090e-001 4.030000e-002 2.419530e+000
         vertex 1.332669e-001 4.030000e-002 2.419530e+000
      endloop
   endfacet
   facet normal 1.328465e-010 1.000000e+000 8.242985e-016
      outer loop
         vertex 1.385890e-001 4.030000e-002 2.428350e+000
         vertex 1.332669e-001 4.030000e-002 2.419530e+000
         vertex 9.932575e-002 4.030000e-002 2.467613e+000
      endloop
   endfacet
   facet normal 1.328465e-010 1.000000e+000 8.242985e-016
      outer loop
         vertex 9.932575e-002 4.030000e-002 2.467613e+000
         vertex 1.332669e-001 4.030000e-002 2.419530e+000
         vertex 9.225468e-002 4.030000e-002 2.460542e+000
      endloop
   endfacet
endsolid