solid LasMAN_3D - øÿ÷∆πÒ-1 πÒ√≈-1
   facet normal -1.000000e+000 0.000000e+000 0.000000e+000
      outer loop
         vertex 2.109565e+000 5.551115e-017 -1.768194e-001
         vertex 2.109565e+000 9.500000e-001 -1.768194e-001
         vertex 2.109565e+000 5.551115e-017 -1.848194e-001
      endloop
   endfacet
   facet normal -1.000000e+000 0.000000e+000 0.000000e+000
      outer loop
         vertex 2.109565e+000 5.551115e-017 -1.848194e-001
         vertex 2.109565e+000 9.500000e-001 -1.768194e-001
         vertex 2.109565e+000 9.500000e-001 -1.848194e-001
      endloop
   endfacet
   facet normal 0.000000e+000 -1.000000e+000 0.000000e+000
      outer loop
         vertex 2.459565e+000 5.551115e-017 -1.768194e-001
         vertex 2.109565e+000 5.551115e-017 -1.768194e-001
         vertex 2.459565e+000 5.551115e-017 -1.848194e-001
      endloop
   endfacet
   facet normal 0.000000e+000 -1.000000e+000 0.000000e+000
      outer loop
         vertex 2.459565e+000 5.551115e-017 -1.848194e-001
         vertex 2.109565e+000 5.551115e-017 -1.768194e-001
         vertex 2.109565e+000 5.551115e-017 -1.848194e-001
      endloop
   endfacet
   facet normal 1.000000e+000 0.000000e+000 0.000000e+000
      outer loop
         vertex 2.459565e+000 9.500000e-001 -1.768194e-001
         vertex 2.459565e+000 5.551115e-017 -1.768194e-001
         vertex 2.459565e+000 9.500000e-001 -1.848194e-001
      endloop
   endfacet
   facet normal 1.000000e+000 0.000000e+000 0.000000e+000
      outer loop
         vertex 2.459565e+000 9.500000e-001 -1.848194e-001
         vertex 2.459565e+000 5.551115e-017 -1.768194e-001
         vertex 2.459565e+000 5.551115e-017 -1.848194e-001
      endloop
   endfacet
   facet normal 0.000000e+000 1.000000e+000 0.000000e+000
      outer loop
         vertex 2.109565e+000 9.500000e-001 -1.768194e-001
         vertex 2.459565e+000 9.500000e-001 -1.768194e-001
         vertex 2.109565e+000 9.500000e-001 -1.848194e-001
      endloop
   endfacet
   facet normal 0.000000e+000 1.000000e+000 0.000000e+000
      outer loop
         vertex 2.109565e+000 9.500000e-001 -1.848194e-001
         vertex 2.459565e+000 9.500000e-001 -1.768194e-001
         vertex 2.459565e+000 9.500000e-001 -1.848194e-001
      endloop
   endfacet
   facet normal 0.000000e+000 0.000000e+000 1.000000e+000
      outer loop
         vertex 2.459565e+000 5.551115e-017 -1.768194e-001
         vertex 2.459565e+000 9.500000e-001 -1.768194e-001
         vertex 2.109565e+000 5.551115e-017 -1.768194e-001
      endloop
   endfacet
   facet normal 0.000000e+000 0.000000e+000 1.000000e+000
      outer loop
         vertex 2.109565e+000 5.551115e-017 -1.768194e-001
         vertex 2.459565e+000 9.500000e-001 -1.768194e-001
         vertex 2.109565e+000 9.500000e-001 -1.768194e-001
      endloop
   endfacet
   facet normal 0.000000e+000 0.000000e+000 -1.000000e+000
      outer loop
         vertex 2.459565e+000 9.500000e-001 -1.848194e-001
         vertex 2.459565e+000 5.551115e-017 -1.848194e-001
         vertex 2.109565e+000 9.500000e-001 -1.848194e-001
      endloop
   endfacet
   facet normal 0.000000e+000 0.000000e+000 -1.000000e+000
      outer loop
         vertex 2.109565e+000 9.500000e-001 -1.848194e-001
         vertex 2.459565e+000 5.551115e-017 -1.848194e-001
         vertex 2.109565e+000 5.551115e-017 -1.848194e-001
      endloop
   endfacet
endsolid