solid LasMAN_3D - screen-4
   facet normal 1.000000e+000 1.496274e-016 -7.643468e-017
      outer loop
         vertex 3.524565e+000 4.966987e-001 -1.274989e-001
         vertex 3.524565e+000 2.368911e-001 2.250108e-002
         vertex 3.524565e+000 4.866987e-001 -1.448194e-001
      endloop
   endfacet
   facet normal 1.000000e+000 1.496274e-016 -7.643468e-017
      outer loop
         vertex 3.524565e+000 4.866987e-001 -1.448194e-001
         vertex 3.524565e+000 2.368911e-001 2.250108e-002
         vertex 3.524565e+000 2.268911e-001 5.180571e-003
      endloop
   endfacet
   facet normal 1.723868e-017 8.660254e-001 -5.000000e-001
      outer loop
         vertex 3.124565e+000 4.966987e-001 -1.274989e-001
         vertex 3.524565e+000 4.966987e-001 -1.274989e-001
         vertex 3.124565e+000 4.866987e-001 -1.448194e-001
      endloop
   endfacet
   facet normal 1.723868e-017 8.660254e-001 -5.000000e-001
      outer loop
         vertex 3.124565e+000 4.866987e-001 -1.448194e-001
         vertex 3.524565e+000 4.966987e-001 -1.274989e-001
         vertex 3.524565e+000 4.866987e-001 -1.448194e-001
      endloop
   endfacet
   facet normal -1.000000e+000 -6.950398e-017 3.017538e-017
      outer loop
         vertex 3.124565e+000 2.368911e-001 2.250108e-002
         vertex 3.124565e+000 4.966987e-001 -1.274989e-001
         vertex 3.124565e+000 2.268911e-001 5.180571e-003
      endloop
   endfacet
   facet normal -1.000000e+000 -6.950398e-017 3.017538e-017
      outer loop
         vertex 3.124565e+000 2.268911e-001 5.180571e-003
         vertex 3.124565e+000 4.966987e-001 -1.274989e-001
         vertex 3.124565e+000 4.866987e-001 -1.448194e-001
      endloop
   endfacet
   facet normal -1.723868e-017 -8.660254e-001 5.000000e-001
      outer loop
         vertex 3.524565e+000 2.368911e-001 2.250108e-002
         vertex 3.124565e+000 2.368911e-001 2.250108e-002
         vertex 3.524565e+000 2.268911e-001 5.180571e-003
      endloop
   endfacet
   facet normal -1.723868e-017 -8.660254e-001 5.000000e-001
      outer loop
         vertex 3.524565e+000 2.268911e-001 5.180571e-003
         vertex 3.124565e+000 2.368911e-001 2.250108e-002
         vertex 3.124565e+000 2.268911e-001 5.180571e-003
      endloop
   endfacet
   facet normal -8.619340e-018 5.000000e-001 8.660254e-001
      outer loop
         vertex 3.514565e+000 4.880385e-001 -1.224989e-001
         vertex 3.524565e+000 4.966987e-001 -1.274989e-001
         vertex 3.134565e+000 4.880385e-001 -1.224989e-001
      endloop
   endfacet
   facet normal -8.619340e-018 5.000000e-001 8.660254e-001
      outer loop
         vertex 3.134565e+000 4.880385e-001 -1.224989e-001
         vertex 3.524565e+000 4.966987e-001 -1.274989e-001
         vertex 3.124565e+000 4.966987e-001 -1.274989e-001
      endloop
   endfacet
   facet normal -8.619340e-018 5.000000e-001 8.660254e-001
      outer loop
         vertex 3.134565e+000 4.880385e-001 -1.224989e-001
         vertex 3.124565e+000 4.966987e-001 -1.274989e-001
         vertex 3.134565e+000 2.455514e-001 1.750107e-002
      endloop
   endfacet
   facet normal -8.619340e-018 5.000000e-001 8.660254e-001
      outer loop
         vertex 3.134565e+000 2.455514e-001 1.750107e-002
         vertex 3.124565e+000 4.966987e-001 -1.274989e-001
         vertex 3.124565e+000 2.368911e-001 2.250108e-002
      endloop
   endfacet
   facet normal -8.619340e-018 5.000000e-001 8.660254e-001
      outer loop
         vertex 3.134565e+000 2.455514e-001 1.750107e-002
         vertex 3.124565e+000 2.368911e-001 2.250108e-002
         vertex 3.514565e+000 2.455514e-001 1.750107e-002
      endloop
   endfacet
   facet normal -8.619340e-018 5.000000e-001 8.660254e-001
      outer loop
         vertex 3.514565e+000 2.455514e-001 1.750107e-002
         vertex 3.124565e+000 2.368911e-001 2.250108e-002
         vertex 3.524565e+000 2.368911e-001 2.250108e-002
      endloop
   endfacet
   facet normal -8.619340e-018 5.000000e-001 8.660254e-001
      outer loop
         vertex 3.514565e+000 2.455514e-001 1.750107e-002
         vertex 3.524565e+000 2.368911e-001 2.250108e-002
         vertex 3.514565e+000 4.880385e-001 -1.224989e-001
      endloop
   endfacet
   facet normal -8.619340e-018 5.000000e-001 8.660254e-001
      outer loop
         vertex 3.514565e+000 4.880385e-001 -1.224989e-001
         vertex 3.524565e+000 2.368911e-001 2.250108e-002
         vertex 3.524565e+000 4.966987e-001 -1.274989e-001
      endloop
   endfacet
   facet normal 8.619340e-018 -5.000000e-001 -8.660254e-001
      outer loop
         vertex 3.124565e+000 2.268911e-001 5.180571e-003
         vertex 3.124565e+000 4.866987e-001 -1.448194e-001
         vertex 3.524565e+000 2.268911e-001 5.180571e-003
      endloop
   endfacet
   facet normal 8.619340e-018 -5.000000e-001 -8.660254e-001
      outer loop
         vertex 3.524565e+000 2.268911e-001 5.180571e-003
         vertex 3.124565e+000 4.866987e-001 -1.448194e-001
         vertex 3.524565e+000 4.866987e-001 -1.448194e-001
      endloop
   endfacet
   facet normal 1.723868e-017 8.660254e-001 -5.000000e-001
      outer loop
         vertex 3.514565e+000 2.430514e-001 1.317095e-002
         vertex 3.134565e+000 2.430514e-001 1.317095e-002
         vertex 3.514565e+000 2.455514e-001 1.750107e-002
      endloop
   endfacet
   facet normal 1.723868e-017 8.660254e-001 -5.000000e-001
      outer loop
         vertex 3.514565e+000 2.455514e-001 1.750107e-002
         vertex 3.134565e+000 2.430514e-001 1.317095e-002
         vertex 3.134565e+000 2.455514e-001 1.750107e-002
      endloop
   endfacet
   facet normal 1.000000e+000 7.522708e-017 -3.347962e-017
      outer loop
         vertex 3.134565e+000 2.430514e-001 1.317095e-002
         vertex 3.134565e+000 4.855385e-001 -1.268291e-001
         vertex 3.134565e+000 2.455514e-001 1.750107e-002
      endloop
   endfacet
   facet normal 1.000000e+000 7.522708e-017 -3.347962e-017
      outer loop
         vertex 3.134565e+000 2.455514e-001 1.750107e-002
         vertex 3.134565e+000 4.855385e-001 -1.268291e-001
         vertex 3.134565e+000 4.880385e-001 -1.224989e-001
      endloop
   endfacet
   facet normal -1.723868e-017 -8.660254e-001 5.000000e-001
      outer loop
         vertex 3.134565e+000 4.855385e-001 -1.268291e-001
         vertex 3.514565e+000 4.855385e-001 -1.268291e-001
         vertex 3.134565e+000 4.880385e-001 -1.224989e-001
      endloop
   endfacet
   facet normal -1.723868e-017 -8.660254e-001 5.000000e-001
      outer loop
         vertex 3.134565e+000 4.880385e-001 -1.224989e-001
         vertex 3.514565e+000 4.855385e-001 -1.268291e-001
         vertex 3.514565e+000 4.880385e-001 -1.224989e-001
      endloop
   endfacet
   facet normal -1.000000e+000 -1.610736e-016 8.304315e-017
      outer loop
         vertex 3.514565e+000 4.855385e-001 -1.268291e-001
         vertex 3.514565e+000 2.430514e-001 1.317095e-002
         vertex 3.514565e+000 4.880385e-001 -1.224989e-001
      endloop
   endfacet
   facet normal -1.000000e+000 -1.610736e-016 8.304315e-017
      outer loop
         vertex 3.514565e+000 4.880385e-001 -1.224989e-001
         vertex 3.514565e+000 2.430514e-001 1.317095e-002
         vertex 3.514565e+000 2.455514e-001 1.750107e-002
      endloop
   endfacet
   facet normal -8.619340e-018 5.000000e-001 8.660254e-001
      outer loop
         vertex 3.514565e+000 4.855385e-001 -1.268291e-001
         vertex 3.134565e+000 4.855385e-001 -1.268291e-001
         vertex 3.514565e+000 2.430514e-001 1.317095e-002
      endloop
   endfacet
   facet normal -8.619340e-018 5.000000e-001 8.660254e-001
      outer loop
         vertex 3.514565e+000 2.430514e-001 1.317095e-002
         vertex 3.134565e+000 4.855385e-001 -1.268291e-001
         vertex 3.134565e+000 2.430514e-001 1.317095e-002
      endloop
   endfacet
endsolid