solid LasMAN_3D - Ì¾ºÅ-1
   facet normal -1.683793e-016 5.000000e-001 8.660254e-001
      outer loop
         vertex 1.711505e+000 1.099311e+000 1.149798e+000
         vertex 1.711505e+000 1.519312e+000 9.073112e-001
         vertex 1.710505e+000 1.099311e+000 1.149798e+000
      endloop
   endfacet
   facet normal -1.683793e-016 5.000000e-001 8.660254e-001
      outer loop
         vertex 1.710505e+000 1.099311e+000 1.149798e+000
         vertex 1.711505e+000 1.519312e+000 9.073112e-001
         vertex 1.710505e+000 1.519312e+000 9.073112e-001
      endloop
   endfacet
   facet normal 2.775558e-017 -1.000000e+000 2.775558e-017
      outer loop
         vertex 1.710505e+000 1.084311e+000 1.141138e+000
         vertex 1.710505e+000 1.084311e+000 6.561638e-001
         vertex 1.711505e+000 1.084311e+000 1.141138e+000
      endloop
   endfacet
   facet normal 2.775558e-017 -1.000000e+000 2.775558e-017
      outer loop
         vertex 1.711505e+000 1.084311e+000 1.141138e+000
         vertex 1.710505e+000 1.084311e+000 6.561638e-001
         vertex 1.711505e+000 1.084311e+000 6.561638e-001
      endloop
   endfacet
   facet normal 1.406237e-016 5.000000e-001 -8.660254e-001
      outer loop
         vertex 1.710505e+000 1.099311e+000 6.475036e-001
         vertex 1.710505e+000 1.519312e+000 8.899907e-001
         vertex 1.711505e+000 1.099311e+000 6.475036e-001
      endloop
   endfacet
   facet normal 1.406237e-016 5.000000e-001 -8.660254e-001
      outer loop
         vertex 1.711505e+000 1.099311e+000 6.475036e-001
         vertex 1.710505e+000 1.519312e+000 8.899907e-001
         vertex 1.711505e+000 1.519312e+000 8.899907e-001
      endloop
   endfacet
   facet normal 1.000000e+000 2.775558e-017 1.784030e-016
      outer loop
         vertex 1.711505e+000 1.089311e+000 1.149798e+000
         vertex 1.711505e+000 1.087884e+000 1.148798e+000
         vertex 1.711505e+000 1.090891e+000 1.150535e+000
      endloop
   endfacet
   facet normal 1.000000e+000 2.775558e-017 1.784030e-016
      outer loop
         vertex 1.711505e+000 1.090891e+000 1.150535e+000
         vertex 1.711505e+000 1.087884e+000 1.148798e+000
         vertex 1.711505e+000 1.086651e+000 1.147566e+000
      endloop
   endfacet
   facet normal 1.000000e+000 2.775558e-017 1.784030e-016
      outer loop
         vertex 1.711505e+000 1.090891e+000 1.150535e+000
         vertex 1.711505e+000 1.086651e+000 1.147566e+000
         vertex 1.711505e+000 1.092575e+000 1.150986e+000
      endloop
   endfacet
   facet normal 1.000000e+000 2.775558e-017 1.784030e-016
      outer loop
         vertex 1.711505e+000 1.092575e+000 1.150986e+000
         vertex 1.711505e+000 1.086651e+000 1.147566e+000
         vertex 1.711505e+000 1.085651e+000 1.146138e+000
      endloop
   endfacet
   facet normal 1.000000e+000 2.775558e-017 1.784030e-016
      outer loop
         vertex 1.711505e+000 1.092575e+000 1.150986e+000
         vertex 1.711505e+000 1.085651e+000 1.146138e+000
         vertex 1.711505e+000 1.094311e+000 1.151138e+000
      endloop
   endfacet
   facet normal 1.000000e+000 2.775558e-017 1.784030e-016
      outer loop
         vertex 1.711505e+000 1.094311e+000 1.151138e+000
         vertex 1.711505e+000 1.085651e+000 1.146138e+000
         vertex 1.711505e+000 1.084915e+000 1.144558e+000
      endloop
   endfacet
   facet normal 1.000000e+000 2.775558e-017 1.784030e-016
      outer loop
         vertex 1.711505e+000 1.094311e+000 1.151138e+000
         vertex 1.711505e+000 1.084915e+000 1.144558e+000
         vertex 1.711505e+000 1.096048e+000 1.150986e+000
      endloop
   endfacet
   facet normal 1.000000e+000 2.775558e-017 1.784030e-016
      outer loop
         vertex 1.711505e+000 1.096048e+000 1.150986e+000
         vertex 1.711505e+000 1.084915e+000 1.144558e+000
         vertex 1.711505e+000 1.084463e+000 1.142874e+000
      endloop
   endfacet
   facet normal 1.000000e+000 2.775558e-017 1.784030e-016
      outer loop
         vertex 1.711505e+000 1.096048e+000 1.150986e+000
         vertex 1.711505e+000 1.084463e+000 1.142874e+000
         vertex 1.711505e+000 1.097732e+000 1.150535e+000
      endloop
   endfacet
   facet normal 1.000000e+000 2.775558e-017 1.784030e-016
      outer loop
         vertex 1.711505e+000 1.097732e+000 1.150535e+000
         vertex 1.711505e+000 1.084463e+000 1.142874e+000
         vertex 1.711505e+000 1.084311e+000 1.141138e+000
      endloop
   endfacet
   facet normal 1.000000e+000 2.775558e-017 1.784030e-016
      outer loop
         vertex 1.711505e+000 1.097732e+000 1.150535e+000
         vertex 1.711505e+000 1.084311e+000 1.141138e+000
         vertex 1.711505e+000 1.099311e+000 1.149798e+000
      endloop
   endfacet
   facet normal 1.000000e+000 2.775558e-017 1.784030e-016
      outer loop
         vertex 1.711505e+000 1.099311e+000 6.475036e-001
         vertex 1.711505e+000 1.084311e+000 6.561638e-001
         vertex 1.711505e+000 1.084463e+000 6.544273e-001
      endloop
   endfacet
   facet normal 1.000000e+000 2.775558e-017 1.784030e-016
      outer loop
         vertex 1.711505e+000 1.524312e+000 8.986509e-001
         vertex 1.711505e+000 1.524160e+000 9.003874e-001
         vertex 1.711505e+000 1.524160e+000 8.969145e-001
      endloop
   endfacet
   facet normal 1.000000e+000 2.775558e-017 1.784030e-016
      outer loop
         vertex 1.711505e+000 1.524160e+000 8.969145e-001
         vertex 1.711505e+000 1.524160e+000 9.003874e-001
         vertex 1.711505e+000 1.523708e+000 9.020711e-001
      endloop
   endfacet
   facet normal 1.000000e+000 2.775558e-017 1.784030e-016
      outer loop
         vertex 1.711505e+000 1.524160e+000 8.969145e-001
         vertex 1.711505e+000 1.523708e+000 9.020711e-001
         vertex 1.711505e+000 1.523708e+000 8.952307e-001
      endloop
   endfacet
   facet normal 1.000000e+000 2.775558e-017 1.784030e-016
      outer loop
         vertex 1.711505e+000 1.523708e+000 8.952307e-001
         vertex 1.711505e+000 1.523708e+000 9.020711e-001
         vertex 1.711505e+000 1.522972e+000 9.036509e-001
      endloop
   endfacet
   facet normal 1.000000e+000 2.775558e-017 1.784030e-016
      outer loop
         vertex 1.711505e+000 1.523708e+000 8.952307e-001
         vertex 1.711505e+000 1.522972e+000 9.036509e-001
         vertex 1.711505e+000 1.522972e+000 8.936509e-001
      endloop
   endfacet
   facet normal 1.000000e+000 2.775558e-017 1.784030e-016
      outer loop
         vertex 1.711505e+000 1.522972e+000 8.936509e-001
         vertex 1.711505e+000 1.522972e+000 9.036509e-001
         vertex 1.711505e+000 1.521972e+000 9.050788e-001
      endloop
   endfacet
   facet normal 1.000000e+000 2.775558e-017 1.784030e-016
      outer loop
         vertex 1.711505e+000 1.522972e+000 8.936509e-001
         vertex 1.711505e+000 1.521972e+000 9.050788e-001
         vertex 1.711505e+000 1.521972e+000 8.922231e-001
      endloop
   endfacet
   facet normal 1.000000e+000 2.775558e-017 1.784030e-016
      outer loop
         vertex 1.711505e+000 1.521972e+000 8.922231e-001
         vertex 1.711505e+000 1.521972e+000 9.050788e-001
         vertex 1.711505e+000 1.520739e+000 9.063114e-001
      endloop
   endfacet
   facet normal 1.000000e+000 2.775558e-017 1.784030e-016
      outer loop
         vertex 1.711505e+000 1.521972e+000 8.922231e-001
         vertex 1.711505e+000 1.520739e+000 9.063114e-001
         vertex 1.711505e+000 1.520739e+000 8.909905e-001
      endloop
   endfacet
   facet normal 1.000000e+000 2.775558e-017 1.784030e-016
      outer loop
         vertex 1.711505e+000 1.520739e+000 8.909905e-001
         vertex 1.711505e+000 1.520739e+000 9.063114e-001
         vertex 1.711505e+000 1.519312e+000 9.073112e-001
      endloop
   endfacet
   facet normal 1.000000e+000 2.775558e-017 1.784030e-016
      outer loop
         vertex 1.711505e+000 1.520739e+000 8.909905e-001
         vertex 1.711505e+000 1.519312e+000 9.073112e-001
         vertex 1.711505e+000 1.519312e+000 8.899907e-001
      endloop
   endfacet
   facet normal 1.000000e+000 2.775558e-017 1.784030e-016
      outer loop
         vertex 1.711505e+000 1.519312e+000 8.899907e-001
         vertex 1.711505e+000 1.519312e+000 9.073112e-001
         vertex 1.711505e+000 1.099311e+000 1.149798e+000
      endloop
   endfacet
   facet normal 1.000000e+000 2.775558e-017 1.784030e-016
      outer loop
         vertex 1.711505e+000 1.519312e+000 8.899907e-001
         vertex 1.711505e+000 1.099311e+000 1.149798e+000
         vertex 1.711505e+000 1.099311e+000 6.475036e-001
      endloop
   endfacet
   facet normal 1.000000e+000 2.775558e-017 1.784030e-016
      outer loop
         vertex 1.711505e+000 1.099311e+000 6.475036e-001
         vertex 1.711505e+000 1.099311e+000 1.149798e+000
         vertex 1.711505e+000 1.084311e+000 1.141138e+000
      endloop
   endfacet
   facet normal 1.000000e+000 2.775558e-017 1.784030e-016
      outer loop
         vertex 1.711505e+000 1.099311e+000 6.475036e-001
         vertex 1.711505e+000 1.084311e+000 1.141138e+000
         vertex 1.711505e+000 1.084311e+000 6.561638e-001
      endloop
   endfacet
   facet normal 1.000000e+000 2.775558e-017 1.784030e-016
      outer loop
         vertex 1.711505e+000 1.090891e+000 6.467669e-001
         vertex 1.711505e+000 1.085651e+000 6.511638e-001
         vertex 1.711505e+000 1.089311e+000 6.475036e-001
      endloop
   endfacet
   facet normal 1.000000e+000 2.775558e-017 1.784030e-016
      outer loop
         vertex 1.711505e+000 1.089311e+000 6.475036e-001
         vertex 1.711505e+000 1.085651e+000 6.511638e-001
         vertex 1.711505e+000 1.086651e+000 6.497359e-001
      endloop
   endfacet
   facet normal 1.000000e+000 2.775558e-017 1.784030e-016
      outer loop
         vertex 1.711505e+000 1.089311e+000 6.475036e-001
         vertex 1.711505e+000 1.086651e+000 6.497359e-001
         vertex 1.711505e+000 1.087884e+000 6.485034e-001
      endloop
   endfacet
   facet normal 1.000000e+000 2.775558e-017 1.784030e-016
      outer loop
         vertex 1.711505e+000 1.090891e+000 6.467669e-001
         vertex 1.711505e+000 1.092575e+000 6.463158e-001
         vertex 1.711505e+000 1.085651e+000 6.511638e-001
      endloop
   endfacet
   facet normal 1.000000e+000 2.775558e-017 1.784030e-016
      outer loop
         vertex 1.711505e+000 1.085651e+000 6.511638e-001
         vertex 1.711505e+000 1.092575e+000 6.463158e-001
         vertex 1.711505e+000 1.094311e+000 6.461638e-001
      endloop
   endfacet
   facet normal 1.000000e+000 2.775558e-017 1.784030e-016
      outer loop
         vertex 1.711505e+000 1.085651e+000 6.511638e-001
         vertex 1.711505e+000 1.094311e+000 6.461638e-001
         vertex 1.711505e+000 1.096048e+000 6.463158e-001
      endloop
   endfacet
   facet normal 1.000000e+000 2.775558e-017 1.784030e-016
      outer loop
         vertex 1.711505e+000 1.084463e+000 6.544273e-001
         vertex 1.711505e+000 1.084915e+000 6.527436e-001
         vertex 1.711505e+000 1.099311e+000 6.475036e-001
      endloop
   endfacet
   facet normal 1.000000e+000 2.775558e-017 1.784030e-016
      outer loop
         vertex 1.711505e+000 1.099311e+000 6.475036e-001
         vertex 1.711505e+000 1.084915e+000 6.527436e-001
         vertex 1.711505e+000 1.085651e+000 6.511638e-001
      endloop
   endfacet
   facet normal 1.000000e+000 2.775558e-017 1.784030e-016
      outer loop
         vertex 1.711505e+000 1.099311e+000 6.475036e-001
         vertex 1.711505e+000 1.085651e+000 6.511638e-001
         vertex 1.711505e+000 1.097732e+000 6.467669e-001
      endloop
   endfacet
   facet normal 1.000000e+000 2.775558e-017 1.784030e-016
      outer loop
         vertex 1.711505e+000 1.097732e+000 6.467669e-001
         vertex 1.711505e+000 1.085651e+000 6.511638e-001
         vertex 1.711505e+000 1.096048e+000 6.463158e-001
      endloop
   endfacet
   facet normal -1.000000e+000 -2.775558e-017 -1.784030e-016
      outer loop
         vertex 1.710505e+000 1.099311e+000 1.149798e+000
         vertex 1.710505e+000 1.084311e+000 1.141138e+000
         vertex 1.710505e+000 1.097732e+000 1.150535e+000
      endloop
   endfacet
   facet normal -1.000000e+000 -2.775558e-017 -1.784030e-016
      outer loop
         vertex 1.710505e+000 1.097732e+000 1.150535e+000
         vertex 1.710505e+000 1.084311e+000 1.141138e+000
         vertex 1.710505e+000 1.084463e+000 1.142874e+000
      endloop
   endfacet
   facet normal -1.000000e+000 -2.775558e-017 -1.784030e-016
      outer loop
         vertex 1.710505e+000 1.097732e+000 1.150535e+000
         vertex 1.710505e+000 1.084463e+000 1.142874e+000
         vertex 1.710505e+000 1.096048e+000 1.150986e+000
      endloop
   endfacet
   facet normal -1.000000e+000 -2.775558e-017 -1.784030e-016
      outer loop
         vertex 1.710505e+000 1.096048e+000 1.150986e+000
         vertex 1.710505e+000 1.084463e+000 1.142874e+000
         vertex 1.710505e+000 1.084915e+000 1.144558e+000
      endloop
   endfacet
   facet normal -1.000000e+000 -2.775558e-017 -1.784030e-016
      outer loop
         vertex 1.710505e+000 1.096048e+000 1.150986e+000
         vertex 1.710505e+000 1.084915e+000 1.144558e+000
         vertex 1.710505e+000 1.094311e+000 1.151138e+000
      endloop
   endfacet
   facet normal -1.000000e+000 -2.775558e-017 -1.784030e-016
      outer loop
         vertex 1.710505e+000 1.094311e+000 1.151138e+000
         vertex 1.710505e+000 1.084915e+000 1.144558e+000
         vertex 1.710505e+000 1.085651e+000 1.146138e+000
      endloop
   endfacet
   facet normal -1.000000e+000 -2.775558e-017 -1.784030e-016
      outer loop
         vertex 1.710505e+000 1.094311e+000 1.151138e+000
         vertex 1.710505e+000 1.085651e+000 1.146138e+000
         vertex 1.710505e+000 1.092575e+000 1.150986e+000
      endloop
   endfacet
   facet normal -1.000000e+000 -2.775558e-017 -1.784030e-016
      outer loop
         vertex 1.710505e+000 1.092575e+000 1.150986e+000
         vertex 1.710505e+000 1.085651e+000 1.146138e+000
         vertex 1.710505e+000 1.086651e+000 1.147566e+000
      endloop
   endfacet
   facet normal -1.000000e+000 -2.775558e-017 -1.784030e-016
      outer loop
         vertex 1.710505e+000 1.092575e+000 1.150986e+000
         vertex 1.710505e+000 1.086651e+000 1.147566e+000
         vertex 1.710505e+000 1.090891e+000 1.150535e+000
      endloop
   endfacet
   facet normal -1.000000e+000 -2.775558e-017 -1.784030e-016
      outer loop
         vertex 1.710505e+000 1.090891e+000 1.150535e+000
         vertex 1.710505e+000 1.086651e+000 1.147566e+000
         vertex 1.710505e+000 1.087884e+000 1.148798e+000
      endloop
   endfacet
   facet normal -1.000000e+000 -2.775558e-017 -1.784030e-016
      outer loop
         vertex 1.710505e+000 1.090891e+000 1.150535e+000
         vertex 1.710505e+000 1.087884e+000 1.148798e+000
         vertex 1.710505e+000 1.089311e+000 1.149798e+000
      endloop
   endfacet
   facet normal -1.000000e+000 -2.775558e-017 -1.784030e-016
      outer loop
         vertex 1.710505e+000 1.089311e+000 6.475036e-001
         vertex 1.710505e+000 1.087884e+000 6.485034e-001
         vertex 1.710505e+000 1.090891e+000 6.467669e-001
      endloop
   endfacet
   facet normal -1.000000e+000 -2.775558e-017 -1.784030e-016
      outer loop
         vertex 1.710505e+000 1.090891e+000 6.467669e-001
         vertex 1.710505e+000 1.087884e+000 6.485034e-001
         vertex 1.710505e+000 1.086651e+000 6.497359e-001
      endloop
   endfacet
   facet normal -1.000000e+000 -2.775558e-017 -1.784030e-016
      outer loop
         vertex 1.710505e+000 1.090891e+000 6.467669e-001
         vertex 1.710505e+000 1.086651e+000 6.497359e-001
         vertex 1.710505e+000 1.092575e+000 6.463158e-001
      endloop
   endfacet
   facet normal -1.000000e+000 -2.775558e-017 -1.784030e-016
      outer loop
         vertex 1.710505e+000 1.092575e+000 6.463158e-001
         vertex 1.710505e+000 1.086651e+000 6.497359e-001
         vertex 1.710505e+000 1.085651e+000 6.511638e-001
      endloop
   endfacet
   facet normal -1.000000e+000 -2.775558e-017 -1.784030e-016
      outer loop
         vertex 1.710505e+000 1.092575e+000 6.463158e-001
         vertex 1.710505e+000 1.085651e+000 6.511638e-001
         vertex 1.710505e+000 1.094311e+000 6.461638e-001
      endloop
   endfacet
   facet normal -1.000000e+000 -2.775558e-017 -1.784030e-016
      outer loop
         vertex 1.710505e+000 1.094311e+000 6.461638e-001
         vertex 1.710505e+000 1.085651e+000 6.511638e-001
         vertex 1.710505e+000 1.084915e+000 6.527436e-001
      endloop
   endfacet
   facet normal -1.000000e+000 -2.775558e-017 -1.784030e-016
      outer loop
         vertex 1.710505e+000 1.094311e+000 6.461638e-001
         vertex 1.710505e+000 1.084915e+000 6.527436e-001
         vertex 1.710505e+000 1.096048e+000 6.463158e-001
      endloop
   endfacet
   facet normal -1.000000e+000 -2.775558e-017 -1.784030e-016
      outer loop
         vertex 1.710505e+000 1.096048e+000 6.463158e-001
         vertex 1.710505e+000 1.084915e+000 6.527436e-001
         vertex 1.710505e+000 1.084463e+000 6.544273e-001
      endloop
   endfacet
   facet normal -1.000000e+000 -2.775558e-017 -1.784030e-016
      outer loop
         vertex 1.710505e+000 1.096048e+000 6.463158e-001
         vertex 1.710505e+000 1.084463e+000 6.544273e-001
         vertex 1.710505e+000 1.097732e+000 6.467669e-001
      endloop
   endfacet
   facet normal -1.000000e+000 -2.775558e-017 -1.784030e-016
      outer loop
         vertex 1.710505e+000 1.097732e+000 6.467669e-001
         vertex 1.710505e+000 1.084463e+000 6.544273e-001
         vertex 1.710505e+000 1.084311e+000 6.561638e-001
      endloop
   endfacet
   facet normal -1.000000e+000 -2.775558e-017 -1.784030e-016
      outer loop
         vertex 1.710505e+000 1.097732e+000 6.467669e-001
         vertex 1.710505e+000 1.084311e+000 6.561638e-001
         vertex 1.710505e+000 1.099311e+000 6.475036e-001
      endloop
   endfacet
   facet normal -1.000000e+000 -2.775558e-017 -1.784030e-016
      outer loop
         vertex 1.710505e+000 1.084311e+000 6.561638e-001
         vertex 1.710505e+000 1.084311e+000 1.141138e+000
         vertex 1.710505e+000 1.099311e+000 6.475036e-001
      endloop
   endfacet
   facet normal -1.000000e+000 -2.775558e-017 -1.784030e-016
      outer loop
         vertex 1.710505e+000 1.099311e+000 6.475036e-001
         vertex 1.710505e+000 1.084311e+000 1.141138e+000
         vertex 1.710505e+000 1.099311e+000 1.149798e+000
      endloop
   endfacet
   facet normal -1.000000e+000 -2.775558e-017 -1.784030e-016
      outer loop
         vertex 1.710505e+000 1.099311e+000 6.475036e-001
         vertex 1.710505e+000 1.099311e+000 1.149798e+000
         vertex 1.710505e+000 1.519312e+000 8.899907e-001
      endloop
   endfacet
   facet normal -1.000000e+000 -2.775558e-017 -1.784030e-016
      outer loop
         vertex 1.710505e+000 1.519312e+000 8.899907e-001
         vertex 1.710505e+000 1.099311e+000 1.149798e+000
         vertex 1.710505e+000 1.519312e+000 9.073112e-001
      endloop
   endfacet
   facet normal -1.000000e+000 -2.775558e-017 -1.784030e-016
      outer loop
         vertex 1.710505e+000 1.519312e+000 8.899907e-001
         vertex 1.710505e+000 1.519312e+000 9.073112e-001
         vertex 1.710505e+000 1.520739e+000 9.063114e-001
      endloop
   endfacet
   facet normal -1.000000e+000 -2.775558e-017 -1.784030e-016
      outer loop
         vertex 1.710505e+000 1.523708e+000 8.952307e-001
         vertex 1.710505e+000 1.522972e+000 8.936509e-001
         vertex 1.710505e+000 1.519312e+000 8.899907e-001
      endloop
   endfacet
   facet normal -1.000000e+000 -2.775558e-017 -1.784030e-016
      outer loop
         vertex 1.710505e+000 1.519312e+000 8.899907e-001
         vertex 1.710505e+000 1.522972e+000 8.936509e-001
         vertex 1.710505e+000 1.521972e+000 8.922231e-001
      endloop
   endfacet
   facet normal -1.000000e+000 -2.775558e-017 -1.784030e-016
      outer loop
         vertex 1.710505e+000 1.519312e+000 8.899907e-001
         vertex 1.710505e+000 1.521972e+000 8.922231e-001
         vertex 1.710505e+000 1.520739e+000 8.909905e-001
      endloop
   endfacet
   facet normal -1.000000e+000 -2.775558e-017 -1.784030e-016
      outer loop
         vertex 1.710505e+000 1.520739e+000 9.063114e-001
         vertex 1.710505e+000 1.521972e+000 9.050788e-001
         vertex 1.710505e+000 1.519312e+000 8.899907e-001
      endloop
   endfacet
   facet normal -1.000000e+000 -2.775558e-017 -1.784030e-016
      outer loop
         vertex 1.710505e+000 1.519312e+000 8.899907e-001
         vertex 1.710505e+000 1.521972e+000 9.050788e-001
         vertex 1.710505e+000 1.522972e+000 9.036509e-001
      endloop
   endfacet
   facet normal -1.000000e+000 -2.775558e-017 -1.784030e-016
      outer loop
         vertex 1.710505e+000 1.519312e+000 8.899907e-001
         vertex 1.710505e+000 1.522972e+000 9.036509e-001
         vertex 1.710505e+000 1.523708e+000 9.020711e-001
      endloop
   endfacet
   facet normal -1.000000e+000 -2.775558e-017 -1.784030e-016
      outer loop
         vertex 1.710505e+000 1.524160e+000 8.969145e-001
         vertex 1.710505e+000 1.523708e+000 8.952307e-001
         vertex 1.710505e+000 1.524312e+000 8.986509e-001
      endloop
   endfacet
   facet normal -1.000000e+000 -2.775558e-017 -1.784030e-016
      outer loop
         vertex 1.710505e+000 1.524312e+000 8.986509e-001
         vertex 1.710505e+000 1.523708e+000 8.952307e-001
         vertex 1.710505e+000 1.519312e+000 8.899907e-001
      endloop
   endfacet
   facet normal -1.000000e+000 -2.775558e-017 -1.784030e-016
      outer loop
         vertex 1.710505e+000 1.524312e+000 8.986509e-001
         vertex 1.710505e+000 1.519312e+000 8.899907e-001
         vertex 1.710505e+000 1.524160e+000 9.003874e-001
      endloop
   endfacet
   facet normal -1.000000e+000 -2.775558e-017 -1.784030e-016
      outer loop
         vertex 1.710505e+000 1.524160e+000 9.003874e-001
         vertex 1.710505e+000 1.519312e+000 8.899907e-001
         vertex 1.710505e+000 1.523708e+000 9.020711e-001
      endloop
   endfacet
   facet normal -1.718798e-016 4.488580e-001 8.936031e-001
      outer loop
         vertex 1.711505e+000 1.099311e+000 1.149798e+000
         vertex 1.710505e+000 1.099311e+000 1.149798e+000
         vertex 1.710505e+000 1.097732e+000 1.150535e+000
      endloop
   endfacet
   facet normal -1.748089e-016 3.960194e-001 9.182422e-001
      outer loop
         vertex 1.711505e+000 1.099311e+000 1.149798e+000
         vertex 1.710505e+000 1.097732e+000 1.150535e+000
         vertex 1.711505e+000 1.097732e+000 1.150535e+000
      endloop
   endfacet
   facet normal -1.788669e-016 2.868663e-001 9.579706e-001
      outer loop
         vertex 1.711505e+000 1.097732e+000 1.150535e+000
         vertex 1.710505e+000 1.097732e+000 1.150535e+000
         vertex 1.710505e+000 1.096048e+000 1.150986e+000
      endloop
   endfacet
   facet normal -1.799959e-016 2.305518e-001 9.730601e-001
      outer loop
         vertex 1.711505e+000 1.097732e+000 1.150535e+000
         vertex 1.710505e+000 1.096048e+000 1.150986e+000
         vertex 1.711505e+000 1.096048e+000 1.150986e+000
      endloop
   endfacet
   facet normal -1.804194e-016 1.161583e-001 9.932307e-001
      outer loop
         vertex 1.711505e+000 1.096048e+000 1.150986e+000
         vertex 1.710505e+000 1.096048e+000 1.150986e+000
         vertex 1.710505e+000 1.094311e+000 1.151138e+000
      endloop
   endfacet
   facet normal -1.797138e-016 5.807914e-002 9.983120e-001
      outer loop
         vertex 1.711505e+000 1.096048e+000 1.150986e+000
         vertex 1.710505e+000 1.094311e+000 1.151138e+000
         vertex 1.711505e+000 1.094311e+000 1.151138e+000
      endloop
   endfacet
   facet normal -1.764898e-016 -5.807914e-002 9.983120e-001
      outer loop
         vertex 1.711505e+000 1.094311e+000 1.151138e+000
         vertex 1.710505e+000 1.094311e+000 1.151138e+000
         vertex 1.710505e+000 1.092575e+000 1.150986e+000
      endloop
   endfacet
   facet normal -1.739713e-016 -1.161583e-001 9.932307e-001
      outer loop
         vertex 1.711505e+000 1.094311e+000 1.151138e+000
         vertex 1.710505e+000 1.092575e+000 1.150986e+000
         vertex 1.711505e+000 1.092575e+000 1.150986e+000
      endloop
   endfacet
   facet normal -1.671977e-016 -2.305518e-001 9.730601e-001
      outer loop
         vertex 1.711505e+000 1.092575e+000 1.150986e+000
         vertex 1.710505e+000 1.092575e+000 1.150986e+000
         vertex 1.710505e+000 1.090891e+000 1.150535e+000
      endloop
   endfacet
   facet normal -1.629427e-016 -2.868663e-001 9.579706e-001
      outer loop
         vertex 1.711505e+000 1.092575e+000 1.150986e+000
         vertex 1.710505e+000 1.090891e+000 1.150535e+000
         vertex 1.711505e+000 1.090891e+000 1.150535e+000
      endloop
   endfacet
   facet normal -1.528254e-016 -3.960194e-001 9.182422e-001
      outer loop
         vertex 1.711505e+000 1.090891e+000 1.150535e+000
         vertex 1.710505e+000 1.090891e+000 1.150535e+000
         vertex 1.710505e+000 1.089311e+000 1.149798e+000
      endloop
   endfacet
   facet normal -1.469631e-016 -4.488580e-001 8.936031e-001
      outer loop
         vertex 1.711505e+000 1.090891e+000 1.150535e+000
         vertex 1.710505e+000 1.089311e+000 1.149798e+000
         vertex 1.711505e+000 1.089311e+000 1.149798e+000
      endloop
   endfacet
   facet normal -1.338096e-016 -5.494540e-001 8.355240e-001
      outer loop
         vertex 1.711505e+000 1.089311e+000 1.149798e+000
         vertex 1.710505e+000 1.089311e+000 1.149798e+000
         vertex 1.710505e+000 1.087884e+000 1.148798e+000
      endloop
   endfacet
   facet normal -1.265182e-016 -5.972114e-001 8.020839e-001
      outer loop
         vertex 1.711505e+000 1.089311e+000 1.149798e+000
         vertex 1.710505e+000 1.087884e+000 1.148798e+000
         vertex 1.711505e+000 1.087884e+000 1.148798e+000
      endloop
   endfacet
   facet normal -1.107280e-016 -6.861938e-001 7.274188e-001
      outer loop
         vertex 1.711505e+000 1.087884e+000 1.148798e+000
         vertex 1.710505e+000 1.087884e+000 1.148798e+000
         vertex 1.710505e+000 1.086651e+000 1.147566e+000
      endloop
   endfacet
   facet normal -1.022291e-016 -7.274188e-001 6.861938e-001
      outer loop
         vertex 1.711505e+000 1.087884e+000 1.148798e+000
         vertex 1.710505e+000 1.086651e+000 1.147566e+000
         vertex 1.711505e+000 1.086651e+000 1.147566e+000
      endloop
   endfacet
   facet normal -8.428199e-017 -8.020839e-001 5.972114e-001
      outer loop
         vertex 1.711505e+000 1.086651e+000 1.147566e+000
         vertex 1.710505e+000 1.086651e+000 1.147566e+000
         vertex 1.710505e+000 1.085651e+000 1.146138e+000
      endloop
   endfacet
   facet normal -7.483377e-017 -8.355240e-001 5.494540e-001
      outer loop
         vertex 1.711505e+000 1.086651e+000 1.147566e+000
         vertex 1.710505e+000 1.085651e+000 1.146138e+000
         vertex 1.711505e+000 1.085651e+000 1.146138e+000
      endloop
   endfacet
   facet normal -5.527513e-017 -8.936031e-001 4.488580e-001
      outer loop
         vertex 1.711505e+000 1.085651e+000 1.146138e+000
         vertex 1.710505e+000 1.085651e+000 1.146138e+000
         vertex 1.710505e+000 1.084915e+000 1.144558e+000
      endloop
   endfacet
   facet normal -4.516469e-017 -9.182422e-001 3.960194e-001
      outer loop
         vertex 1.711505e+000 1.085651e+000 1.146138e+000
         vertex 1.710505e+000 1.084915e+000 1.144558e+000
         vertex 1.711505e+000 1.084915e+000 1.144558e+000
      endloop
   endfacet
   facet normal -2.458877e-017 -9.579706e-001 2.868663e-001
      outer loop
         vertex 1.711505e+000 1.084915e+000 1.144558e+000
         vertex 1.710505e+000 1.084915e+000 1.144558e+000
         vertex 1.710505e+000 1.084463e+000 1.142874e+000
      endloop
   endfacet
   facet normal -1.412329e-017 -9.730601e-001 2.305518e-001
      outer loop
         vertex 1.711505e+000 1.084915e+000 1.144558e+000
         vertex 1.710505e+000 1.084463e+000 1.142874e+000
         vertex 1.711505e+000 1.084463e+000 1.142874e+000
      endloop
   endfacet
   facet normal 6.844708e-018 -9.932307e-001 1.161583e-001
      outer loop
         vertex 1.711505e+000 1.084463e+000 1.142874e+000
         vertex 1.710505e+000 1.084463e+000 1.142874e+000
         vertex 1.710505e+000 1.084311e+000 1.141138e+000
      endloop
   endfacet
   facet normal 1.734723e-017 -9.983120e-001 5.807914e-002
      outer loop
         vertex 1.711505e+000 1.084463e+000 1.142874e+000
         vertex 1.710505e+000 1.084311e+000 1.141138e+000
         vertex 1.711505e+000 1.084311e+000 1.141138e+000
      endloop
   endfacet
   facet normal 3.807021e-017 -9.983120e-001 -5.807914e-002
      outer loop
         vertex 1.711505e+000 1.084311e+000 6.561638e-001
         vertex 1.710505e+000 1.084311e+000 6.561638e-001
         vertex 1.710505e+000 1.084463e+000 6.544273e-001
      endloop
   endfacet
   facet normal 4.829067e-017 -9.932307e-001 -1.161583e-001
      outer loop
         vertex 1.711505e+000 1.084311e+000 6.561638e-001
         vertex 1.710505e+000 1.084463e+000 6.544273e-001
         vertex 1.711505e+000 1.084463e+000 6.544273e-001
      endloop
   endfacet
   facet normal 6.813898e-017 -9.730601e-001 -2.305518e-001
      outer loop
         vertex 1.711505e+000 1.084463e+000 6.544273e-001
         vertex 1.710505e+000 1.084463e+000 6.544273e-001
         vertex 1.710505e+000 1.084915e+000 6.527436e-001
      endloop
   endfacet
   facet normal 7.776682e-017 -9.579706e-001 -2.868663e-001
      outer loop
         vertex 1.711505e+000 1.084463e+000 6.544273e-001
         vertex 1.710505e+000 1.084915e+000 6.527436e-001
         vertex 1.711505e+000 1.084915e+000 6.527436e-001
      endloop
   endfacet
   facet normal 9.613737e-017 -9.182422e-001 -3.960194e-001
      outer loop
         vertex 1.711505e+000 1.084915e+000 6.527436e-001
         vertex 1.710505e+000 1.084915e+000 6.527436e-001
         vertex 1.710505e+000 1.085651e+000 6.511638e-001
      endloop
   endfacet
   facet normal 1.048801e-016 -8.936031e-001 -4.488580e-001
      outer loop
         vertex 1.711505e+000 1.084915e+000 6.527436e-001
         vertex 1.710505e+000 1.085651e+000 6.511638e-001
         vertex 1.711505e+000 1.085651e+000 6.511638e-001
      endloop
   endfacet
   facet normal 1.212147e-016 -8.355240e-001 -5.494540e-001
      outer loop
         vertex 1.711505e+000 1.085651e+000 6.511638e-001
         vertex 1.710505e+000 1.085651e+000 6.511638e-001
         vertex 1.710505e+000 1.086651e+000 6.497359e-001
      endloop
   endfacet
   facet normal 1.288066e-016 -8.020839e-001 -5.972114e-001
      outer loop
         vertex 1.711505e+000 1.085651e+000 6.511638e-001
         vertex 1.710505e+000 1.086651e+000 6.497359e-001
         vertex 1.711505e+000 1.086651e+000 6.497359e-001
      endloop
   endfacet
   facet normal 1.426089e-016 -7.274188e-001 -6.861938e-001
      outer loop
         vertex 1.711505e+000 1.086651e+000 6.497359e-001
         vertex 1.710505e+000 1.086651e+000 6.497359e-001
         vertex 1.710505e+000 1.087884e+000 6.485034e-001
      endloop
   endfacet
   facet normal 1.488194e-016 -6.861938e-001 -7.274188e-001
      outer loop
         vertex 1.711505e+000 1.086651e+000 6.497359e-001
         vertex 1.710505e+000 1.087884e+000 6.485034e-001
         vertex 1.711505e+000 1.087884e+000 6.485034e-001
      endloop
   endfacet
   facet normal 1.596701e-016 -5.972114e-001 -8.020839e-001
      outer loop
         vertex 1.711505e+000 1.087884e+000 6.485034e-001
         vertex 1.710505e+000 1.087884e+000 6.485034e-001
         vertex 1.710505e+000 1.089311e+000 6.475036e-001
      endloop
   endfacet
   facet normal 1.643104e-016 -5.494540e-001 -8.355240e-001
      outer loop
         vertex 1.711505e+000 1.087884e+000 6.485034e-001
         vertex 1.710505e+000 1.089311e+000 6.475036e-001
         vertex 1.711505e+000 1.089311e+000 6.475036e-001
      endloop
   endfacet
   facet normal 1.718798e-016 -4.488580e-001 -8.936031e-001
      outer loop
         vertex 1.711505e+000 1.089311e+000 6.475036e-001
         vertex 1.710505e+000 1.089311e+000 6.475036e-001
         vertex 1.710505e+000 1.090891e+000 6.467669e-001
      endloop
   endfacet
   facet normal 1.748089e-016 -3.960194e-001 -9.182422e-001
      outer loop
         vertex 1.711505e+000 1.089311e+000 6.475036e-001
         vertex 1.710505e+000 1.090891e+000 6.467669e-001
         vertex 1.711505e+000 1.090891e+000 6.467669e-001
      endloop
   endfacet
   facet normal 1.788669e-016 -2.868663e-001 -9.579706e-001
      outer loop
         vertex 1.711505e+000 1.090891e+000 6.467669e-001
         vertex 1.710505e+000 1.090891e+000 6.467669e-001
         vertex 1.710505e+000 1.092575e+000 6.463158e-001
      endloop
   endfacet
   facet normal 1.799959e-016 -2.305518e-001 -9.730601e-001
      outer loop
         vertex 1.711505e+000 1.090891e+000 6.467669e-001
         vertex 1.710505e+000 1.092575e+000 6.463158e-001
         vertex 1.711505e+000 1.092575e+000 6.463158e-001
      endloop
   endfacet
   facet normal 1.804194e-016 -1.161583e-001 -9.932307e-001
      outer loop
         vertex 1.711505e+000 1.092575e+000 6.463158e-001
         vertex 1.710505e+000 1.092575e+000 6.463158e-001
         vertex 1.710505e+000 1.094311e+000 6.461638e-001
      endloop
   endfacet
   facet normal 1.797138e-016 -5.807914e-002 -9.983120e-001
      outer loop
         vertex 1.711505e+000 1.092575e+000 6.463158e-001
         vertex 1.710505e+000 1.094311e+000 6.461638e-001
         vertex 1.711505e+000 1.094311e+000 6.461638e-001
      endloop
   endfacet
   facet normal 1.764898e-016 5.807914e-002 -9.983120e-001
      outer loop
         vertex 1.711505e+000 1.094311e+000 6.461638e-001
         vertex 1.710505e+000 1.094311e+000 6.461638e-001
         vertex 1.710505e+000 1.096048e+000 6.463158e-001
      endloop
   endfacet
   facet normal 1.739713e-016 1.161583e-001 -9.932307e-001
      outer loop
         vertex 1.711505e+000 1.094311e+000 6.461638e-001
         vertex 1.710505e+000 1.096048e+000 6.463158e-001
         vertex 1.711505e+000 1.096048e+000 6.463158e-001
      endloop
   endfacet
   facet normal 1.671977e-016 2.305518e-001 -9.730601e-001
      outer loop
         vertex 1.711505e+000 1.096048e+000 6.463158e-001
         vertex 1.710505e+000 1.096048e+000 6.463158e-001
         vertex 1.710505e+000 1.097732e+000 6.467669e-001
      endloop
   endfacet
   facet normal 1.629427e-016 2.868663e-001 -9.579706e-001
      outer loop
         vertex 1.711505e+000 1.096048e+000 6.463158e-001
         vertex 1.710505e+000 1.097732e+000 6.467669e-001
         vertex 1.711505e+000 1.097732e+000 6.467669e-001
      endloop
   endfacet
   facet normal 1.528254e-016 3.960194e-001 -9.182422e-001
      outer loop
         vertex 1.711505e+000 1.097732e+000 6.467669e-001
         vertex 1.710505e+000 1.097732e+000 6.467669e-001
         vertex 1.710505e+000 1.099311e+000 6.475036e-001
      endloop
   endfacet
   facet normal 1.469631e-016 4.488580e-001 -8.936031e-001
      outer loop
         vertex 1.711505e+000 1.097732e+000 6.467669e-001
         vertex 1.710505e+000 1.099311e+000 6.475036e-001
         vertex 1.711505e+000 1.099311e+000 6.475036e-001
      endloop
   endfacet
   facet normal 1.338096e-016 5.494540e-001 -8.355240e-001
      outer loop
         vertex 1.711505e+000 1.519312e+000 8.899907e-001
         vertex 1.710505e+000 1.519312e+000 8.899907e-001
         vertex 1.710505e+000 1.520739e+000 8.909905e-001
      endloop
   endfacet
   facet normal 1.265182e-016 5.972114e-001 -8.020839e-001
      outer loop
         vertex 1.711505e+000 1.519312e+000 8.899907e-001
         vertex 1.710505e+000 1.520739e+000 8.909905e-001
         vertex 1.711505e+000 1.520739e+000 8.909905e-001
      endloop
   endfacet
   facet normal 1.107280e-016 6.861938e-001 -7.274188e-001
      outer loop
         vertex 1.711505e+000 1.520739e+000 8.909905e-001
         vertex 1.710505e+000 1.520739e+000 8.909905e-001
         vertex 1.710505e+000 1.521972e+000 8.922231e-001
      endloop
   endfacet
   facet normal 1.022291e-016 7.274188e-001 -6.861938e-001
      outer loop
         vertex 1.711505e+000 1.520739e+000 8.909905e-001
         vertex 1.710505e+000 1.521972e+000 8.922231e-001
         vertex 1.711505e+000 1.521972e+000 8.922231e-001
      endloop
   endfacet
   facet normal 8.428199e-017 8.020839e-001 -5.972114e-001
      outer loop
         vertex 1.711505e+000 1.521972e+000 8.922231e-001
         vertex 1.710505e+000 1.521972e+000 8.922231e-001
         vertex 1.710505e+000 1.522972e+000 8.936509e-001
      endloop
   endfacet
   facet normal 7.483377e-017 8.355240e-001 -5.494540e-001
      outer loop
         vertex 1.711505e+000 1.521972e+000 8.922231e-001
         vertex 1.710505e+000 1.522972e+000 8.936509e-001
         vertex 1.711505e+000 1.522972e+000 8.936509e-001
      endloop
   endfacet
   facet normal 5.527513e-017 8.936031e-001 -4.488580e-001
      outer loop
         vertex 1.711505e+000 1.522972e+000 8.936509e-001
         vertex 1.710505e+000 1.522972e+000 8.936509e-001
         vertex 1.710505e+000 1.523708e+000 8.952307e-001
      endloop
   endfacet
   facet normal 4.516469e-017 9.182422e-001 -3.960194e-001
      outer loop
         vertex 1.711505e+000 1.522972e+000 8.936509e-001
         vertex 1.710505e+000 1.523708e+000 8.952307e-001
         vertex 1.711505e+000 1.523708e+000 8.952307e-001
      endloop
   endfacet
   facet normal 2.458877e-017 9.579706e-001 -2.868663e-001
      outer loop
         vertex 1.711505e+000 1.523708e+000 8.952307e-001
         vertex 1.710505e+000 1.523708e+000 8.952307e-001
         vertex 1.710505e+000 1.524160e+000 8.969145e-001
      endloop
   endfacet
   facet normal 1.412329e-017 9.730601e-001 -2.305518e-001
      outer loop
         vertex 1.711505e+000 1.523708e+000 8.952307e-001
         vertex 1.710505e+000 1.524160e+000 8.969145e-001
         vertex 1.711505e+000 1.524160e+000 8.969145e-001
      endloop
   endfacet
   facet normal -6.844708e-018 9.932307e-001 -1.161583e-001
      outer loop
         vertex 1.711505e+000 1.524160e+000 8.969145e-001
         vertex 1.710505e+000 1.524160e+000 8.969145e-001
         vertex 1.710505e+000 1.524312e+000 8.986509e-001
      endloop
   endfacet
   facet normal -1.734723e-017 9.983120e-001 -5.807914e-002
      outer loop
         vertex 1.711505e+000 1.524160e+000 8.969145e-001
         vertex 1.710505e+000 1.524312e+000 8.986509e-001
         vertex 1.711505e+000 1.524312e+000 8.986509e-001
      endloop
   endfacet
   facet normal -3.807021e-017 9.983120e-001 5.807914e-002
      outer loop
         vertex 1.711505e+000 1.524312e+000 8.986509e-001
         vertex 1.710505e+000 1.524312e+000 8.986509e-001
         vertex 1.710505e+000 1.524160e+000 9.003874e-001
      endloop
   endfacet
   facet normal -4.829067e-017 9.932307e-001 1.161583e-001
      outer loop
         vertex 1.711505e+000 1.524312e+000 8.986509e-001
         vertex 1.710505e+000 1.524160e+000 9.003874e-001
         vertex 1.711505e+000 1.524160e+000 9.003874e-001
      endloop
   endfacet
   facet normal -6.813898e-017 9.730601e-001 2.305518e-001
      outer loop
         vertex 1.711505e+000 1.524160e+000 9.003874e-001
         vertex 1.710505e+000 1.524160e+000 9.003874e-001
         vertex 1.710505e+000 1.523708e+000 9.020711e-001
      endloop
   endfacet
   facet normal -7.776682e-017 9.579706e-001 2.868663e-001
      outer loop
         vertex 1.711505e+000 1.524160e+000 9.003874e-001
         vertex 1.710505e+000 1.523708e+000 9.020711e-001
         vertex 1.711505e+000 1.523708e+000 9.020711e-001
      endloop
   endfacet
   facet normal -9.613737e-017 9.182422e-001 3.960194e-001
      outer loop
         vertex 1.711505e+000 1.523708e+000 9.020711e-001
         vertex 1.710505e+000 1.523708e+000 9.020711e-001
         vertex 1.710505e+000 1.522972e+000 9.036509e-001
      endloop
   endfacet
   facet normal -1.048801e-016 8.936031e-001 4.488580e-001
      outer loop
         vertex 1.711505e+000 1.523708e+000 9.020711e-001
         vertex 1.710505e+000 1.522972e+000 9.036509e-001
         vertex 1.711505e+000 1.522972e+000 9.036509e-001
      endloop
   endfacet
   facet normal -1.212147e-016 8.355240e-001 5.494540e-001
      outer loop
         vertex 1.711505e+000 1.522972e+000 9.036509e-001
         vertex 1.710505e+000 1.522972e+000 9.036509e-001
         vertex 1.710505e+000 1.521972e+000 9.050788e-001
      endloop
   endfacet
   facet normal -1.288066e-016 8.020839e-001 5.972114e-001
      outer loop
         vertex 1.711505e+000 1.522972e+000 9.036509e-001
         vertex 1.710505e+000 1.521972e+000 9.050788e-001
         vertex 1.711505e+000 1.521972e+000 9.050788e-001
      endloop
   endfacet
   facet normal -1.426089e-016 7.274188e-001 6.861938e-001
      outer loop
         vertex 1.711505e+000 1.521972e+000 9.050788e-001
         vertex 1.710505e+000 1.521972e+000 9.050788e-001
         vertex 1.710505e+000 1.520739e+000 9.063114e-001
      endloop
   endfacet
   facet normal -1.488194e-016 6.861938e-001 7.274188e-001
      outer loop
         vertex 1.711505e+000 1.521972e+000 9.050788e-001
         vertex 1.710505e+000 1.520739e+000 9.063114e-001
         vertex 1.711505e+000 1.520739e+000 9.063114e-001
      endloop
   endfacet
   facet normal -1.596701e-016 5.972114e-001 8.020839e-001
      outer loop
         vertex 1.711505e+000 1.520739e+000 9.063114e-001
         vertex 1.710505e+000 1.520739e+000 9.063114e-001
         vertex 1.710505e+000 1.519312e+000 9.073112e-001
      endloop
   endfacet
   facet normal -1.643104e-016 5.494540e-001 8.355240e-001
      outer loop
         vertex 1.711505e+000 1.520739e+000 9.063114e-001
         vertex 1.710505e+000 1.519312e+000 9.073112e-001
         vertex 1.711505e+000 1.519312e+000 9.073112e-001
      endloop
   endfacet
endsolid