solid LasMAN_3D - øÿ÷∆πÒ-1 πÒ√≈-2
   facet normal 1.000000e+000 -6.938894e-018 0.000000e+000
      outer loop
         vertex 2.809565e+000 9.500000e-001 -1.768194e-001
         vertex 2.809565e+000 1.192093e-008 -1.768194e-001
         vertex 2.809565e+000 9.500000e-001 -1.848194e-001
      endloop
   endfacet
   facet normal 1.000000e+000 -6.938894e-018 0.000000e+000
      outer loop
         vertex 2.809565e+000 9.500000e-001 -1.848194e-001
         vertex 2.809565e+000 1.192093e-008 -1.768194e-001
         vertex 2.809565e+000 1.192093e-008 -1.848194e-001
      endloop
   endfacet
   facet normal 6.938894e-018 1.000000e+000 7.395571e-032
      outer loop
         vertex 2.459565e+000 9.500000e-001 -1.768194e-001
         vertex 2.809565e+000 9.500000e-001 -1.768194e-001
         vertex 2.459565e+000 9.500000e-001 -1.848194e-001
      endloop
   endfacet
   facet normal 6.938894e-018 1.000000e+000 7.395571e-032
      outer loop
         vertex 2.459565e+000 9.500000e-001 -1.848194e-001
         vertex 2.809565e+000 9.500000e-001 -1.768194e-001
         vertex 2.809565e+000 9.500000e-001 -1.848194e-001
      endloop
   endfacet
   facet normal -1.000000e+000 6.938894e-018 0.000000e+000
      outer loop
         vertex 2.459565e+000 1.192093e-008 -1.768194e-001
         vertex 2.459565e+000 9.500000e-001 -1.768194e-001
         vertex 2.459565e+000 1.192093e-008 -1.848194e-001
      endloop
   endfacet
   facet normal -1.000000e+000 6.938894e-018 0.000000e+000
      outer loop
         vertex 2.459565e+000 1.192093e-008 -1.848194e-001
         vertex 2.459565e+000 9.500000e-001 -1.768194e-001
         vertex 2.459565e+000 9.500000e-001 -1.848194e-001
      endloop
   endfacet
   facet normal -6.938894e-018 -1.000000e+000 -7.395571e-032
      outer loop
         vertex 2.809565e+000 1.192093e-008 -1.768194e-001
         vertex 2.459565e+000 1.192093e-008 -1.768194e-001
         vertex 2.809565e+000 1.192093e-008 -1.848194e-001
      endloop
   endfacet
   facet normal -6.938894e-018 -1.000000e+000 -7.395571e-032
      outer loop
         vertex 2.809565e+000 1.192093e-008 -1.848194e-001
         vertex 2.459565e+000 1.192093e-008 -1.768194e-001
         vertex 2.459565e+000 1.192093e-008 -1.848194e-001
      endloop
   endfacet
   facet normal 0.000000e+000 -8.859278e-033 1.000000e+000
      outer loop
         vertex 2.459565e+000 9.500000e-001 -1.768194e-001
         vertex 2.459565e+000 1.192093e-008 -1.768194e-001
         vertex 2.809565e+000 9.500000e-001 -1.768194e-001
      endloop
   endfacet
   facet normal 0.000000e+000 -8.859278e-033 1.000000e+000
      outer loop
         vertex 2.809565e+000 9.500000e-001 -1.768194e-001
         vertex 2.459565e+000 1.192093e-008 -1.768194e-001
         vertex 2.809565e+000 1.192093e-008 -1.768194e-001
      endloop
   endfacet
   facet normal 0.000000e+000 8.859278e-033 -1.000000e+000
      outer loop
         vertex 2.459565e+000 1.192093e-008 -1.848194e-001
         vertex 2.459565e+000 9.500000e-001 -1.848194e-001
         vertex 2.809565e+000 1.192093e-008 -1.848194e-001
      endloop
   endfacet
   facet normal 0.000000e+000 8.859278e-033 -1.000000e+000
      outer loop
         vertex 2.809565e+000 1.192093e-008 -1.848194e-001
         vertex 2.459565e+000 9.500000e-001 -1.848194e-001
         vertex 2.809565e+000 9.500000e-001 -1.848194e-001
      endloop
   endfacet
endsolid