solid LasMAN_3D - Ò¡±Û-2
   facet normal -1.000000e+000 -4.264996e-017 1.467121e-017
      outer loop
         vertex 3.214565e+000 8.947905e-001 -8.052752e-001
         vertex 3.214565e+000 8.600000e-001 -7.948194e-001
         vertex 3.214565e+000 9.000000e-001 -8.048194e-001
      endloop
   endfacet
   facet normal -1.000000e+000 -4.264996e-017 1.467121e-017
      outer loop
         vertex 3.214565e+000 9.000000e-001 -8.048194e-001
         vertex 3.214565e+000 8.600000e-001 -7.948194e-001
         vertex 3.214565e+000 9.400000e-001 -7.948194e-001
      endloop
   endfacet
   facet normal -1.000000e+000 -4.264996e-017 1.467121e-017
      outer loop
         vertex 3.214565e+000 9.000000e-001 -8.048194e-001
         vertex 3.214565e+000 9.400000e-001 -7.948194e-001
         vertex 3.214565e+000 9.052094e-001 -8.052752e-001
      endloop
   endfacet
   facet normal -1.000000e+000 -4.264996e-017 1.467121e-017
      outer loop
         vertex 3.214565e+000 8.947905e-001 -8.052752e-001
         vertex 3.214565e+000 8.897394e-001 -8.066286e-001
         vertex 3.214565e+000 8.600000e-001 -7.948194e-001
      endloop
   endfacet
   facet normal -1.000000e+000 -4.264996e-017 1.467121e-017
      outer loop
         vertex 3.214565e+000 8.600000e-001 -7.948194e-001
         vertex 3.214565e+000 8.897394e-001 -8.066286e-001
         vertex 3.214565e+000 8.850000e-001 -8.088387e-001
      endloop
   endfacet
   facet normal -1.000000e+000 -4.264996e-017 1.467121e-017
      outer loop
         vertex 3.214565e+000 8.600000e-001 -7.948194e-001
         vertex 3.214565e+000 8.850000e-001 -8.088387e-001
         vertex 3.214565e+000 8.807164e-001 -8.118381e-001
      endloop
   endfacet
   facet normal -1.000000e+000 -4.264996e-017 1.467121e-017
      outer loop
         vertex 3.214565e+000 8.718092e-001 -8.450800e-001
         vertex 3.214565e+000 8.740193e-001 -8.498194e-001
         vertex 3.214565e+000 8.600000e-001 -8.748194e-001
      endloop
   endfacet
   facet normal -1.000000e+000 -4.264996e-017 1.467121e-017
      outer loop
         vertex 3.214565e+000 8.600000e-001 -8.748194e-001
         vertex 3.214565e+000 8.740193e-001 -8.498194e-001
         vertex 3.214565e+000 8.770187e-001 -8.541030e-001
      endloop
   endfacet
   facet normal -1.000000e+000 -4.264996e-017 1.467121e-017
      outer loop
         vertex 3.214565e+000 8.770187e-001 -8.541030e-001
         vertex 3.214565e+000 8.807164e-001 -8.578007e-001
         vertex 3.214565e+000 8.600000e-001 -8.748194e-001
      endloop
   endfacet
   facet normal -1.000000e+000 -4.264996e-017 1.467121e-017
      outer loop
         vertex 3.214565e+000 8.600000e-001 -8.748194e-001
         vertex 3.214565e+000 8.807164e-001 -8.578007e-001
         vertex 3.214565e+000 8.850000e-001 -8.608001e-001
      endloop
   endfacet
   facet normal -1.000000e+000 -4.264996e-017 1.467121e-017
      outer loop
         vertex 3.214565e+000 8.600000e-001 -8.748194e-001
         vertex 3.214565e+000 8.850000e-001 -8.608001e-001
         vertex 3.214565e+000 8.897394e-001 -8.630102e-001
      endloop
   endfacet
   facet normal -1.000000e+000 -4.264996e-017 1.467121e-017
      outer loop
         vertex 3.214565e+000 8.807164e-001 -8.118381e-001
         vertex 3.214565e+000 8.770187e-001 -8.155358e-001
         vertex 3.214565e+000 8.600000e-001 -7.948194e-001
      endloop
   endfacet
   facet normal -1.000000e+000 -4.264996e-017 1.467121e-017
      outer loop
         vertex 3.214565e+000 8.600000e-001 -7.948194e-001
         vertex 3.214565e+000 8.770187e-001 -8.155358e-001
         vertex 3.214565e+000 8.740193e-001 -8.198194e-001
      endloop
   endfacet
   facet normal -1.000000e+000 -4.264996e-017 1.467121e-017
      outer loop
         vertex 3.214565e+000 8.600000e-001 -7.948194e-001
         vertex 3.214565e+000 8.740193e-001 -8.198194e-001
         vertex 3.214565e+000 8.718092e-001 -8.245588e-001
      endloop
   endfacet
   facet normal -1.000000e+000 -4.264996e-017 1.467121e-017
      outer loop
         vertex 3.214565e+000 9.192836e-001 -8.578007e-001
         vertex 3.214565e+000 9.400000e-001 -8.748194e-001
         vertex 3.214565e+000 9.150000e-001 -8.608001e-001
      endloop
   endfacet
   facet normal -1.000000e+000 -4.264996e-017 1.467121e-017
      outer loop
         vertex 3.214565e+000 9.150000e-001 -8.608001e-001
         vertex 3.214565e+000 9.400000e-001 -8.748194e-001
         vertex 3.214565e+000 9.102606e-001 -8.630102e-001
      endloop
   endfacet
   facet normal -1.000000e+000 -4.264996e-017 1.467121e-017
      outer loop
         vertex 3.214565e+000 9.192836e-001 -8.578007e-001
         vertex 3.214565e+000 9.229813e-001 -8.541030e-001
         vertex 3.214565e+000 9.400000e-001 -8.748194e-001
      endloop
   endfacet
   facet normal -1.000000e+000 -4.264996e-017 1.467121e-017
      outer loop
         vertex 3.214565e+000 9.400000e-001 -8.748194e-001
         vertex 3.214565e+000 9.229813e-001 -8.541030e-001
         vertex 3.214565e+000 9.259807e-001 -8.498194e-001
      endloop
   endfacet
   facet normal -1.000000e+000 -4.264996e-017 1.467121e-017
      outer loop
         vertex 3.214565e+000 9.400000e-001 -8.748194e-001
         vertex 3.214565e+000 9.259807e-001 -8.498194e-001
         vertex 3.214565e+000 9.281908e-001 -8.450800e-001
      endloop
   endfacet
   facet normal -1.000000e+000 -4.264996e-017 1.467121e-017
      outer loop
         vertex 3.214565e+000 8.718092e-001 -8.245588e-001
         vertex 3.214565e+000 8.704557e-001 -8.296100e-001
         vertex 3.214565e+000 8.600000e-001 -7.948194e-001
      endloop
   endfacet
   facet normal -1.000000e+000 -4.264996e-017 1.467121e-017
      outer loop
         vertex 3.214565e+000 8.600000e-001 -7.948194e-001
         vertex 3.214565e+000 8.704557e-001 -8.296100e-001
         vertex 3.214565e+000 8.700000e-001 -8.348194e-001
      endloop
   endfacet
   facet normal -1.000000e+000 -4.264996e-017 1.467121e-017
      outer loop
         vertex 3.214565e+000 8.600000e-001 -7.948194e-001
         vertex 3.214565e+000 8.700000e-001 -8.348194e-001
         vertex 3.214565e+000 8.600000e-001 -8.748194e-001
      endloop
   endfacet
   facet normal -1.000000e+000 -4.264996e-017 1.467121e-017
      outer loop
         vertex 3.214565e+000 8.600000e-001 -8.748194e-001
         vertex 3.214565e+000 8.700000e-001 -8.348194e-001
         vertex 3.214565e+000 8.704557e-001 -8.400289e-001
      endloop
   endfacet
   facet normal -1.000000e+000 -4.264996e-017 1.467121e-017
      outer loop
         vertex 3.214565e+000 8.600000e-001 -8.748194e-001
         vertex 3.214565e+000 8.704557e-001 -8.400289e-001
         vertex 3.214565e+000 8.718092e-001 -8.450800e-001
      endloop
   endfacet
   facet normal -1.000000e+000 -4.264996e-017 1.467121e-017
      outer loop
         vertex 3.214565e+000 8.897394e-001 -8.630102e-001
         vertex 3.214565e+000 8.947905e-001 -8.643637e-001
         vertex 3.214565e+000 8.600000e-001 -8.748194e-001
      endloop
   endfacet
   facet normal -1.000000e+000 -4.264996e-017 1.467121e-017
      outer loop
         vertex 3.214565e+000 8.600000e-001 -8.748194e-001
         vertex 3.214565e+000 8.947905e-001 -8.643637e-001
         vertex 3.214565e+000 9.000000e-001 -8.648194e-001
      endloop
   endfacet
   facet normal -1.000000e+000 -4.264996e-017 1.467121e-017
      outer loop
         vertex 3.214565e+000 8.600000e-001 -8.748194e-001
         vertex 3.214565e+000 9.000000e-001 -8.648194e-001
         vertex 3.214565e+000 9.400000e-001 -8.748194e-001
      endloop
   endfacet
   facet normal -1.000000e+000 -4.264996e-017 1.467121e-017
      outer loop
         vertex 3.214565e+000 9.400000e-001 -8.748194e-001
         vertex 3.214565e+000 9.000000e-001 -8.648194e-001
         vertex 3.214565e+000 9.052094e-001 -8.643637e-001
      endloop
   endfacet
   facet normal -1.000000e+000 -4.264996e-017 1.467121e-017
      outer loop
         vertex 3.214565e+000 9.400000e-001 -8.748194e-001
         vertex 3.214565e+000 9.052094e-001 -8.643637e-001
         vertex 3.214565e+000 9.102606e-001 -8.630102e-001
      endloop
   endfacet
   facet normal -1.000000e+000 -4.264996e-017 1.467121e-017
      outer loop
         vertex 3.214565e+000 9.281908e-001 -8.245588e-001
         vertex 3.214565e+000 9.259807e-001 -8.198194e-001
         vertex 3.214565e+000 9.400000e-001 -7.948194e-001
      endloop
   endfacet
   facet normal -1.000000e+000 -4.264996e-017 1.467121e-017
      outer loop
         vertex 3.214565e+000 9.400000e-001 -7.948194e-001
         vertex 3.214565e+000 9.259807e-001 -8.198194e-001
         vertex 3.214565e+000 9.229813e-001 -8.155358e-001
      endloop
   endfacet
   facet normal -1.000000e+000 -4.264996e-017 1.467121e-017
      outer loop
         vertex 3.214565e+000 9.400000e-001 -7.948194e-001
         vertex 3.214565e+000 9.229813e-001 -8.155358e-001
         vertex 3.214565e+000 9.192836e-001 -8.118381e-001
      endloop
   endfacet
   facet normal -1.000000e+000 -4.264996e-017 1.467121e-017
      outer loop
         vertex 3.214565e+000 9.192836e-001 -8.118381e-001
         vertex 3.214565e+000 9.150000e-001 -8.088387e-001
         vertex 3.214565e+000 9.400000e-001 -7.948194e-001
      endloop
   endfacet
   facet normal -1.000000e+000 -4.264996e-017 1.467121e-017
      outer loop
         vertex 3.214565e+000 9.400000e-001 -7.948194e-001
         vertex 3.214565e+000 9.150000e-001 -8.088387e-001
         vertex 3.214565e+000 9.102606e-001 -8.066286e-001
      endloop
   endfacet
   facet normal -1.000000e+000 -4.264996e-017 1.467121e-017
      outer loop
         vertex 3.214565e+000 9.400000e-001 -7.948194e-001
         vertex 3.214565e+000 9.102606e-001 -8.066286e-001
         vertex 3.214565e+000 9.052094e-001 -8.052752e-001
      endloop
   endfacet
   facet normal -1.000000e+000 -4.264996e-017 1.467121e-017
      outer loop
         vertex 3.214565e+000 9.281908e-001 -8.450800e-001
         vertex 3.214565e+000 9.295442e-001 -8.400289e-001
         vertex 3.214565e+000 9.400000e-001 -8.748194e-001
      endloop
   endfacet
   facet normal -1.000000e+000 -4.264996e-017 1.467121e-017
      outer loop
         vertex 3.214565e+000 9.400000e-001 -8.748194e-001
         vertex 3.214565e+000 9.295442e-001 -8.400289e-001
         vertex 3.214565e+000 9.300000e-001 -8.348194e-001
      endloop
   endfacet
   facet normal -1.000000e+000 -4.264996e-017 1.467121e-017
      outer loop
         vertex 3.214565e+000 9.400000e-001 -8.748194e-001
         vertex 3.214565e+000 9.300000e-001 -8.348194e-001
         vertex 3.214565e+000 9.400000e-001 -7.948194e-001
      endloop
   endfacet
   facet normal -1.000000e+000 -4.264996e-017 1.467121e-017
      outer loop
         vertex 3.214565e+000 9.400000e-001 -7.948194e-001
         vertex 3.214565e+000 9.300000e-001 -8.348194e-001
         vertex 3.214565e+000 9.295442e-001 -8.296100e-001
      endloop
   endfacet
   facet normal -1.000000e+000 -4.264996e-017 1.467121e-017
      outer loop
         vertex 3.214565e+000 9.400000e-001 -7.948194e-001
         vertex 3.214565e+000 9.295442e-001 -8.296100e-001
         vertex 3.214565e+000 9.281908e-001 -8.245588e-001
      endloop
   endfacet
   facet normal 4.264996e-017 -1.000000e+000 5.551115e-017
      outer loop
         vertex 3.354565e+000 7.900000e-001 -2.448194e-001
         vertex 3.364565e+000 7.900000e-001 -2.548194e-001
         vertex 3.354565e+000 7.900000e-001 -1.848194e-001
      endloop
   endfacet
   facet normal 4.264996e-017 -1.000000e+000 5.551115e-017
      outer loop
         vertex 3.354565e+000 7.900000e-001 -1.848194e-001
         vertex 3.364565e+000 7.900000e-001 -2.548194e-001
         vertex 3.364565e+000 7.900000e-001 -1.748194e-001
      endloop
   endfacet
   facet normal 4.264996e-017 -1.000000e+000 5.551115e-017
      outer loop
         vertex 3.354565e+000 7.900000e-001 -1.848194e-001
         vertex 3.364565e+000 7.900000e-001 -1.748194e-001
         vertex 3.294565e+000 7.900000e-001 -1.848194e-001
      endloop
   endfacet
   facet normal 4.264996e-017 -1.000000e+000 5.551115e-017
      outer loop
         vertex 3.294565e+000 7.900000e-001 -1.848194e-001
         vertex 3.364565e+000 7.900000e-001 -1.748194e-001
         vertex 3.284565e+000 7.900000e-001 -1.748194e-001
      endloop
   endfacet
   facet normal 4.264996e-017 -1.000000e+000 5.551115e-017
      outer loop
         vertex 3.294565e+000 7.900000e-001 -1.848194e-001
         vertex 3.284565e+000 7.900000e-001 -1.748194e-001
         vertex 3.294565e+000 7.900000e-001 -2.448194e-001
      endloop
   endfacet
   facet normal 4.264996e-017 -1.000000e+000 5.551115e-017
      outer loop
         vertex 3.294565e+000 7.900000e-001 -2.448194e-001
         vertex 3.284565e+000 7.900000e-001 -1.748194e-001
         vertex 3.284565e+000 7.900000e-001 -2.548194e-001
      endloop
   endfacet
   facet normal 4.264996e-017 -1.000000e+000 5.551115e-017
      outer loop
         vertex 3.294565e+000 7.900000e-001 -2.448194e-001
         vertex 3.284565e+000 7.900000e-001 -2.548194e-001
         vertex 3.354565e+000 7.900000e-001 -2.448194e-001
      endloop
   endfacet
   facet normal 4.264996e-017 -1.000000e+000 5.551115e-017
      outer loop
         vertex 3.354565e+000 7.900000e-001 -2.448194e-001
         vertex 3.284565e+000 7.900000e-001 -2.548194e-001
         vertex 3.364565e+000 7.900000e-001 -2.548194e-001
      endloop
   endfacet
   facet normal -1.467121e-017 0.000000e+000 -1.000000e+000
      outer loop
         vertex 3.354565e+000 9.300000e-001 -3.248194e-001
         vertex 3.364565e+000 9.400000e-001 -3.248194e-001
         vertex 3.354565e+000 8.700000e-001 -3.248194e-001
      endloop
   endfacet
   facet normal -1.467121e-017 0.000000e+000 -1.000000e+000
      outer loop
         vertex 3.354565e+000 8.700000e-001 -3.248194e-001
         vertex 3.364565e+000 9.400000e-001 -3.248194e-001
         vertex 3.364565e+000 8.600000e-001 -3.248194e-001
      endloop
   endfacet
   facet normal -1.467121e-017 0.000000e+000 -1.000000e+000
      outer loop
         vertex 3.354565e+000 8.700000e-001 -3.248194e-001
         vertex 3.364565e+000 8.600000e-001 -3.248194e-001
         vertex 3.294565e+000 8.700000e-001 -3.248194e-001
      endloop
   endfacet
   facet normal -1.467121e-017 0.000000e+000 -1.000000e+000
      outer loop
         vertex 3.294565e+000 8.700000e-001 -3.248194e-001
         vertex 3.364565e+000 8.600000e-001 -3.248194e-001
         vertex 3.284565e+000 8.600000e-001 -3.248194e-001
      endloop
   endfacet
   facet normal -1.467121e-017 0.000000e+000 -1.000000e+000
      outer loop
         vertex 3.294565e+000 8.700000e-001 -3.248194e-001
         vertex 3.284565e+000 8.600000e-001 -3.248194e-001
         vertex 3.294565e+000 9.300000e-001 -3.248194e-001
      endloop
   endfacet
   facet normal -1.467121e-017 0.000000e+000 -1.000000e+000
      outer loop
         vertex 3.294565e+000 9.300000e-001 -3.248194e-001
         vertex 3.284565e+000 8.600000e-001 -3.248194e-001
         vertex 3.284565e+000 9.400000e-001 -3.248194e-001
      endloop
   endfacet
   facet normal -1.467121e-017 0.000000e+000 -1.000000e+000
      outer loop
         vertex 3.294565e+000 9.300000e-001 -3.248194e-001
         vertex 3.284565e+000 9.400000e-001 -3.248194e-001
         vertex 3.354565e+000 9.300000e-001 -3.248194e-001
      endloop
   endfacet
   facet normal -1.467121e-017 0.000000e+000 -1.000000e+000
      outer loop
         vertex 3.354565e+000 9.300000e-001 -3.248194e-001
         vertex 3.284565e+000 9.400000e-001 -3.248194e-001
         vertex 3.364565e+000 9.400000e-001 -3.248194e-001
      endloop
   endfacet
   facet normal -4.264996e-017 1.000000e+000 -3.101821e-017
      outer loop
         vertex 3.364565e+000 9.400000e-001 -2.248194e-001
         vertex 3.364565e+000 9.400000e-001 -3.248194e-001
         vertex 3.284565e+000 9.400000e-001 -2.248194e-001
      endloop
   endfacet
   facet normal -4.264996e-017 1.000000e+000 -3.101821e-017
      outer loop
         vertex 3.284565e+000 9.400000e-001 -2.248194e-001
         vertex 3.364565e+000 9.400000e-001 -3.248194e-001
         vertex 3.284565e+000 9.400000e-001 -3.248194e-001
      endloop
   endfacet
   facet normal 1.467121e-017 -1.224647e-016 1.000000e+000
      outer loop
         vertex 3.284565e+000 8.900000e-001 -1.748194e-001
         vertex 3.284565e+000 7.900000e-001 -1.748194e-001
         vertex 3.364565e+000 8.900000e-001 -1.748194e-001
      endloop
   endfacet
   facet normal 1.467121e-017 -1.224647e-016 1.000000e+000
      outer loop
         vertex 3.364565e+000 8.900000e-001 -1.748194e-001
         vertex 3.284565e+000 7.900000e-001 -1.748194e-001
         vertex 3.364565e+000 7.900000e-001 -1.748194e-001
      endloop
   endfacet
   facet normal -1.467121e-017 0.000000e+000 -1.000000e+000
      outer loop
         vertex 3.364565e+000 8.600000e-001 -2.548194e-001
         vertex 3.364565e+000 7.900000e-001 -2.548194e-001
         vertex 3.284565e+000 8.600000e-001 -2.548194e-001
      endloop
   endfacet
   facet normal -1.467121e-017 0.000000e+000 -1.000000e+000
      outer loop
         vertex 3.284565e+000 8.600000e-001 -2.548194e-001
         vertex 3.364565e+000 7.900000e-001 -2.548194e-001
         vertex 3.284565e+000 7.900000e-001 -2.548194e-001
      endloop
   endfacet
   facet normal 4.264996e-017 -1.000000e+000 5.551115e-017
      outer loop
         vertex 3.364565e+000 8.600000e-001 -3.248194e-001
         vertex 3.364565e+000 8.600000e-001 -2.548194e-001
         vertex 3.284565e+000 8.600000e-001 -3.248194e-001
      endloop
   endfacet
   facet normal 4.264996e-017 -1.000000e+000 5.551115e-017
      outer loop
         vertex 3.284565e+000 8.600000e-001 -3.248194e-001
         vertex 3.364565e+000 8.600000e-001 -2.548194e-001
         vertex 3.284565e+000 8.600000e-001 -2.548194e-001
      endloop
   endfacet
   facet normal 1.000000e+000 4.264996e-017 -1.467121e-017
      outer loop
         vertex 3.364565e+000 8.600000e-001 -2.548194e-001
         vertex 3.364565e+000 8.600000e-001 -3.248194e-001
         vertex 3.364565e+000 9.400000e-001 -3.248194e-001
      endloop
   endfacet
   facet normal 1.000000e+000 4.264996e-017 -1.467121e-017
      outer loop
         vertex 3.364565e+000 7.900000e-001 -1.748194e-001
         vertex 3.364565e+000 7.900000e-001 -2.548194e-001
         vertex 3.364565e+000 8.900000e-001 -1.748194e-001
      endloop
   endfacet
   facet normal 1.000000e+000 4.264996e-017 -1.467121e-017
      outer loop
         vertex 3.364565e+000 8.900000e-001 -1.748194e-001
         vertex 3.364565e+000 7.900000e-001 -2.548194e-001
         vertex 3.364565e+000 8.600000e-001 -2.548194e-001
      endloop
   endfacet
   facet normal 1.000000e+000 4.264996e-017 -1.467121e-017
      outer loop
         vertex 3.364565e+000 8.900000e-001 -1.748194e-001
         vertex 3.364565e+000 8.600000e-001 -2.548194e-001
         vertex 3.364565e+000 9.400000e-001 -2.248194e-001
      endloop
   endfacet
   facet normal 1.000000e+000 4.264996e-017 -1.467121e-017
      outer loop
         vertex 3.364565e+000 9.400000e-001 -2.248194e-001
         vertex 3.364565e+000 8.600000e-001 -2.548194e-001
         vertex 3.364565e+000 9.400000e-001 -3.248194e-001
      endloop
   endfacet
   facet normal -1.000000e+000 -4.264996e-017 1.467121e-017
      outer loop
         vertex 3.284565e+000 8.600000e-001 -3.248194e-001
         vertex 3.284565e+000 8.600000e-001 -2.548194e-001
         vertex 3.284565e+000 9.400000e-001 -3.248194e-001
      endloop
   endfacet
   facet normal -1.000000e+000 -4.264996e-017 1.467121e-017
      outer loop
         vertex 3.284565e+000 9.400000e-001 -3.248194e-001
         vertex 3.284565e+000 8.600000e-001 -2.548194e-001
         vertex 3.284565e+000 9.400000e-001 -2.248194e-001
      endloop
   endfacet
   facet normal -1.000000e+000 -4.264996e-017 1.467121e-017
      outer loop
         vertex 3.284565e+000 7.900000e-001 -2.548194e-001
         vertex 3.284565e+000 7.900000e-001 -1.748194e-001
         vertex 3.284565e+000 8.600000e-001 -2.548194e-001
      endloop
   endfacet
   facet normal -1.000000e+000 -4.264996e-017 1.467121e-017
      outer loop
         vertex 3.284565e+000 8.600000e-001 -2.548194e-001
         vertex 3.284565e+000 7.900000e-001 -1.748194e-001
         vertex 3.284565e+000 8.900000e-001 -1.748194e-001
      endloop
   endfacet
   facet normal -1.000000e+000 -4.264996e-017 1.467121e-017
      outer loop
         vertex 3.284565e+000 8.600000e-001 -2.548194e-001
         vertex 3.284565e+000 8.900000e-001 -1.748194e-001
         vertex 3.284565e+000 9.400000e-001 -2.248194e-001
      endloop
   endfacet
   facet normal -1.978396e-017 7.071068e-001 7.071068e-001
      outer loop
         vertex 3.284565e+000 9.400000e-001 -2.248194e-001
         vertex 3.284565e+000 8.900000e-001 -1.748194e-001
         vertex 3.364565e+000 9.400000e-001 -2.248194e-001
      endloop
   endfacet
   facet normal -1.978396e-017 7.071068e-001 7.071068e-001
      outer loop
         vertex 3.364565e+000 9.400000e-001 -2.248194e-001
         vertex 3.284565e+000 8.900000e-001 -1.748194e-001
         vertex 3.364565e+000 8.900000e-001 -1.748194e-001
      endloop
   endfacet
   facet normal 4.264996e-017 -1.000000e+000 5.551115e-017
      outer loop
         vertex 3.294565e+000 8.700000e-001 -7.248194e-001
         vertex 3.354565e+000 8.700000e-001 -7.248194e-001
         vertex 3.294565e+000 8.700000e-001 -3.248194e-001
      endloop
   endfacet
   facet normal 4.264996e-017 -1.000000e+000 5.551115e-017
      outer loop
         vertex 3.294565e+000 8.700000e-001 -3.248194e-001
         vertex 3.354565e+000 8.700000e-001 -7.248194e-001
         vertex 3.354565e+000 8.700000e-001 -3.248194e-001
      endloop
   endfacet
   facet normal -1.000000e+000 -4.264996e-017 1.467121e-017
      outer loop
         vertex 3.294565e+000 9.300000e-001 -7.248194e-001
         vertex 3.294565e+000 8.700000e-001 -7.248194e-001
         vertex 3.294565e+000 9.300000e-001 -3.248194e-001
      endloop
   endfacet
   facet normal -1.000000e+000 -4.264996e-017 1.467121e-017
      outer loop
         vertex 3.294565e+000 9.300000e-001 -3.248194e-001
         vertex 3.294565e+000 8.700000e-001 -7.248194e-001
         vertex 3.294565e+000 8.700000e-001 -3.248194e-001
      endloop
   endfacet
   facet normal -4.264996e-017 1.000000e+000 -5.551115e-017
      outer loop
         vertex 3.354565e+000 9.300000e-001 -7.248194e-001
         vertex 3.294565e+000 9.300000e-001 -7.248194e-001
         vertex 3.354565e+000 9.300000e-001 -3.248194e-001
      endloop
   endfacet
   facet normal -4.264996e-017 1.000000e+000 -5.551115e-017
      outer loop
         vertex 3.354565e+000 9.300000e-001 -3.248194e-001
         vertex 3.294565e+000 9.300000e-001 -7.248194e-001
         vertex 3.294565e+000 9.300000e-001 -3.248194e-001
      endloop
   endfacet
   facet normal 1.000000e+000 4.264996e-017 -1.467121e-017
      outer loop
         vertex 3.354565e+000 8.700000e-001 -7.248194e-001
         vertex 3.354565e+000 9.300000e-001 -7.248194e-001
         vertex 3.354565e+000 8.700000e-001 -3.248194e-001
      endloop
   endfacet
   facet normal 1.000000e+000 4.264996e-017 -1.467121e-017
      outer loop
         vertex 3.354565e+000 8.700000e-001 -3.248194e-001
         vertex 3.354565e+000 9.300000e-001 -7.248194e-001
         vertex 3.354565e+000 9.300000e-001 -3.248194e-001
      endloop
   endfacet
   facet normal 1.467121e-017 0.000000e+000 1.000000e+000
      outer loop
         vertex 3.294565e+000 5.900000e-001 -1.848194e-001
         vertex 3.354565e+000 5.900000e-001 -1.848194e-001
         vertex 3.294565e+000 7.900000e-001 -1.848194e-001
      endloop
   endfacet
   facet normal 1.467121e-017 0.000000e+000 1.000000e+000
      outer loop
         vertex 3.294565e+000 7.900000e-001 -1.848194e-001
         vertex 3.354565e+000 5.900000e-001 -1.848194e-001
         vertex 3.354565e+000 7.900000e-001 -1.848194e-001
      endloop
   endfacet
   facet normal -1.000000e+000 -4.264996e-017 1.467121e-017
      outer loop
         vertex 3.294565e+000 5.900000e-001 -2.448194e-001
         vertex 3.294565e+000 5.900000e-001 -1.848194e-001
         vertex 3.294565e+000 7.900000e-001 -2.448194e-001
      endloop
   endfacet
   facet normal -1.000000e+000 -4.264996e-017 1.467121e-017
      outer loop
         vertex 3.294565e+000 7.900000e-001 -2.448194e-001
         vertex 3.294565e+000 5.900000e-001 -1.848194e-001
         vertex 3.294565e+000 7.900000e-001 -1.848194e-001
      endloop
   endfacet
   facet normal -1.467121e-017 0.000000e+000 -1.000000e+000
      outer loop
         vertex 3.354565e+000 5.900000e-001 -2.448194e-001
         vertex 3.294565e+000 5.900000e-001 -2.448194e-001
         vertex 3.354565e+000 7.900000e-001 -2.448194e-001
      endloop
   endfacet
   facet normal -1.467121e-017 0.000000e+000 -1.000000e+000
      outer loop
         vertex 3.354565e+000 7.900000e-001 -2.448194e-001
         vertex 3.294565e+000 5.900000e-001 -2.448194e-001
         vertex 3.294565e+000 7.900000e-001 -2.448194e-001
      endloop
   endfacet
   facet normal 1.000000e+000 4.264996e-017 -1.467121e-017
      outer loop
         vertex 3.354565e+000 5.900000e-001 -1.848194e-001
         vertex 3.354565e+000 5.900000e-001 -2.448194e-001
         vertex 3.354565e+000 7.900000e-001 -1.848194e-001
      endloop
   endfacet
   facet normal 1.000000e+000 4.264996e-017 -1.467121e-017
      outer loop
         vertex 3.354565e+000 7.900000e-001 -1.848194e-001
         vertex 3.354565e+000 5.900000e-001 -2.448194e-001
         vertex 3.354565e+000 7.900000e-001 -2.448194e-001
      endloop
   endfacet
   facet normal -4.264996e-017 1.000000e+000 -5.551115e-017
      outer loop
         vertex 3.354565e+000 5.900000e-001 -1.848194e-001
         vertex 3.369565e+000 5.900000e-001 -1.698194e-001
         vertex 3.369565e+000 5.900000e-001 -2.598194e-001
      endloop
   endfacet
   facet normal -4.264996e-017 1.000000e+000 -5.551115e-017
      outer loop
         vertex 3.369565e+000 5.900000e-001 -1.698194e-001
         vertex 3.354565e+000 5.900000e-001 -1.848194e-001
         vertex 3.279565e+000 5.900000e-001 -1.698194e-001
      endloop
   endfacet
   facet normal -4.264996e-017 1.000000e+000 -5.551115e-017
      outer loop
         vertex 3.279565e+000 5.900000e-001 -1.698194e-001
         vertex 3.354565e+000 5.900000e-001 -1.848194e-001
         vertex 3.294565e+000 5.900000e-001 -1.848194e-001
      endloop
   endfacet
   facet normal -4.264996e-017 1.000000e+000 -5.551115e-017
      outer loop
         vertex 3.279565e+000 5.900000e-001 -1.698194e-001
         vertex 3.294565e+000 5.900000e-001 -1.848194e-001
         vertex 3.279565e+000 5.900000e-001 -2.598194e-001
      endloop
   endfacet
   facet normal -4.264996e-017 1.000000e+000 -5.551115e-017
      outer loop
         vertex 3.279565e+000 5.900000e-001 -2.598194e-001
         vertex 3.294565e+000 5.900000e-001 -1.848194e-001
         vertex 3.294565e+000 5.900000e-001 -2.448194e-001
      endloop
   endfacet
   facet normal -4.264996e-017 1.000000e+000 -5.551115e-017
      outer loop
         vertex 3.279565e+000 5.900000e-001 -2.598194e-001
         vertex 3.294565e+000 5.900000e-001 -2.448194e-001
         vertex 3.369565e+000 5.900000e-001 -2.598194e-001
      endloop
   endfacet
   facet normal -4.264996e-017 1.000000e+000 -5.551115e-017
      outer loop
         vertex 3.369565e+000 5.900000e-001 -2.598194e-001
         vertex 3.294565e+000 5.900000e-001 -2.448194e-001
         vertex 3.354565e+000 5.900000e-001 -2.448194e-001
      endloop
   endfacet
   facet normal -4.264996e-017 1.000000e+000 -5.551115e-017
      outer loop
         vertex 3.369565e+000 5.900000e-001 -2.598194e-001
         vertex 3.354565e+000 5.900000e-001 -2.448194e-001
         vertex 3.354565e+000 5.900000e-001 -1.848194e-001
      endloop
   endfacet
   facet normal 1.467121e-017 -1.156482e-016 1.000000e+000
      outer loop
         vertex 3.369565e+000 5.300000e-001 -1.698194e-001
         vertex 3.369565e+000 5.900000e-001 -1.698194e-001
         vertex 3.279565e+000 5.300000e-001 -1.698194e-001
      endloop
   endfacet
   facet normal 1.467121e-017 -1.156482e-016 1.000000e+000
      outer loop
         vertex 3.279565e+000 5.300000e-001 -1.698194e-001
         vertex 3.369565e+000 5.900000e-001 -1.698194e-001
         vertex 3.279565e+000 5.900000e-001 -1.698194e-001
      endloop
   endfacet
   facet normal -8.619340e-018 5.000000e-001 8.660254e-001
      outer loop
         vertex 3.279565e+000 4.866987e-001 -1.448194e-001
         vertex 3.124565e+000 4.866987e-001 -1.448194e-001
         vertex 3.124565e+000 2.268911e-001 5.180575e-003
      endloop
   endfacet
   facet normal -8.619340e-018 5.000000e-001 8.660254e-001
      outer loop
         vertex 3.524565e+000 2.268911e-001 5.180575e-003
         vertex 3.524565e+000 4.866987e-001 -1.448194e-001
         vertex 3.369565e+000 4.866987e-001 -1.448194e-001
      endloop
   endfacet
   facet normal -8.619340e-018 5.000000e-001 8.660254e-001
      outer loop
         vertex 3.369565e+000 5.300000e-001 -1.698194e-001
         vertex 3.279565e+000 5.300000e-001 -1.698194e-001
         vertex 3.369565e+000 4.866987e-001 -1.448194e-001
      endloop
   endfacet
   facet normal -8.619340e-018 5.000000e-001 8.660254e-001
      outer loop
         vertex 3.369565e+000 4.866987e-001 -1.448194e-001
         vertex 3.279565e+000 5.300000e-001 -1.698194e-001
         vertex 3.279565e+000 4.866987e-001 -1.448194e-001
      endloop
   endfacet
   facet normal -8.619340e-018 5.000000e-001 8.660254e-001
      outer loop
         vertex 3.369565e+000 4.866987e-001 -1.448194e-001
         vertex 3.279565e+000 4.866987e-001 -1.448194e-001
         vertex 3.524565e+000 2.268911e-001 5.180575e-003
      endloop
   endfacet
   facet normal -8.619340e-018 5.000000e-001 8.660254e-001
      outer loop
         vertex 3.524565e+000 2.268911e-001 5.180575e-003
         vertex 3.279565e+000 4.866987e-001 -1.448194e-001
         vertex 3.124565e+000 2.268911e-001 5.180575e-003
      endloop
   endfacet
   facet normal 4.482824e-017 -9.756976e-001 2.191213e-001
      outer loop
         vertex 3.369565e+000 4.227514e-001 -1.194464e-001
         vertex 3.279565e+000 4.227514e-001 -1.194464e-001
         vertex 3.279565e+000 4.198952e-001 -1.340384e-001
      endloop
   endfacet
   facet normal 4.448547e-017 -9.863083e-001 1.649122e-001
      outer loop
         vertex 3.369565e+000 4.227514e-001 -1.194464e-001
         vertex 3.279565e+000 4.198952e-001 -1.340384e-001
         vertex 3.369565e+000 4.198952e-001 -1.340384e-001
      endloop
   endfacet
   facet normal 4.339831e-017 -9.984594e-001 5.548678e-002
      outer loop
         vertex 3.369565e+000 4.198952e-001 -1.340384e-001
         vertex 3.279565e+000 4.198952e-001 -1.340384e-001
         vertex 3.279565e+000 4.194806e-001 -1.489016e-001
      endloop
   endfacet
   facet normal 4.265393e-017 -9.999999e-001 2.704754e-004
      outer loop
         vertex 3.369565e+000 4.198952e-001 -1.340384e-001
         vertex 3.279565e+000 4.194806e-001 -1.489016e-001
         vertex 3.369565e+000 4.194806e-001 -1.489016e-001
      endloop
   endfacet
   facet normal 4.078386e-017 -9.939689e-001 -1.096622e-001
      outer loop
         vertex 3.369565e+000 4.194806e-001 -1.489016e-001
         vertex 3.279565e+000 4.194806e-001 -1.489016e-001
         vertex 3.279565e+000 4.215187e-001 -1.636301e-001
      endloop
   endfacet
   facet normal 3.965817e-017 -9.863973e-001 -1.643786e-001
      outer loop
         vertex 3.369565e+000 4.194806e-001 -1.489016e-001
         vertex 3.279565e+000 4.215187e-001 -1.636301e-001
         vertex 3.369565e+000 4.215187e-001 -1.636301e-001
      endloop
   endfacet
   facet normal 3.705623e-017 -9.623486e-001 -2.718181e-001
      outer loop
         vertex 3.369565e+000 4.215187e-001 -1.636301e-001
         vertex 3.279565e+000 4.215187e-001 -1.636301e-001
         vertex 3.279565e+000 4.259540e-001 -1.778221e-001
      endloop
   endfacet
   facet normal 3.557998e-017 -9.458716e-001 -3.245411e-001
      outer loop
         vertex 3.369565e+000 4.215187e-001 -1.636301e-001
         vertex 3.279565e+000 4.259540e-001 -1.778221e-001
         vertex 3.369565e+000 4.259540e-001 -1.778221e-001
      endloop
   endfacet
   facet normal 3.231718e-017 -9.044617e-001 -4.265548e-001
      outer loop
         vertex 3.369565e+000 4.259540e-001 -1.778221e-001
         vertex 3.279565e+000 4.259540e-001 -1.778221e-001
         vertex 3.279565e+000 4.326654e-001 -1.910902e-001
      endloop
   endfacet
   facet normal 3.053064e-017 -8.795289e-001 -4.758455e-001
      outer loop
         vertex 3.369565e+000 4.259540e-001 -1.778221e-001
         vertex 3.279565e+000 4.326654e-001 -1.910902e-001
         vertex 3.369565e+000 4.326654e-001 -1.910902e-001
      endloop
   endfacet
   facet normal 2.669605e-017 -8.218880e-001 -5.696490e-001
      outer loop
         vertex 3.369565e+000 4.326654e-001 -1.910902e-001
         vertex 3.279565e+000 4.326654e-001 -1.910902e-001
         vertex 3.279565e+000 4.414697e-001 -2.030721e-001
      endloop
   endfacet
   facet normal 2.464800e-017 -7.891800e-001 -6.141620e-001
      outer loop
         vertex 3.369565e+000 4.326654e-001 -1.910902e-001
         vertex 3.279565e+000 4.414697e-001 -2.030721e-001
         vertex 3.369565e+000 4.414697e-001 -2.030721e-001
      endloop
   endfacet
   facet normal 2.034627e-017 -7.168815e-001 -6.971951e-001
      outer loop
         vertex 3.369565e+000 4.414697e-001 -2.030721e-001
         vertex 3.279565e+000 4.414697e-001 -2.030721e-001
         vertex 3.279565e+000 4.521267e-001 -2.134410e-001
      endloop
   endfacet
   facet normal 1.809260e-017 -6.772909e-001 -7.357153e-001
      outer loop
         vertex 3.369565e+000 4.414697e-001 -2.030721e-001
         vertex 3.279565e+000 4.521267e-001 -2.134410e-001
         vertex 3.369565e+000 4.521267e-001 -2.134410e-001
      endloop
   endfacet
   facet normal 1.344115e-017 -5.923080e-001 -8.057116e-001
      outer loop
         vertex 3.369565e+000 4.521267e-001 -2.134410e-001
         vertex 3.279565e+000 4.521267e-001 -2.134410e-001
         vertex 3.279565e+000 4.643454e-001 -2.219138e-001
      endloop
   endfacet
   facet normal 1.104337e-017 -5.469157e-001 -8.371877e-001
      outer loop
         vertex 3.369565e+000 4.521267e-001 -2.134410e-001
         vertex 3.279565e+000 4.643454e-001 -2.219138e-001
         vertex 3.369565e+000 4.643454e-001 -2.219138e-001
      endloop
   endfacet
   facet normal 8.619340e-018 -5.000000e-001 -8.660254e-001
      outer loop
         vertex 3.369565e+000 5.300000e-001 -2.598194e-001
         vertex 3.369565e+000 4.643454e-001 -2.219138e-001
         vertex 3.279565e+000 5.300000e-001 -2.598194e-001
      endloop
   endfacet
   facet normal 8.619340e-018 -5.000000e-001 -8.660254e-001
      outer loop
         vertex 3.279565e+000 5.300000e-001 -2.598194e-001
         vertex 3.369565e+000 4.643454e-001 -2.219138e-001
         vertex 3.279565e+000 4.643454e-001 -2.219138e-001
      endloop
   endfacet
   facet normal -1.467121e-017 2.312965e-016 -1.000000e+000
      outer loop
         vertex 3.369565e+000 5.900000e-001 -2.598194e-001
         vertex 3.369565e+000 5.300000e-001 -2.598194e-001
         vertex 3.279565e+000 5.900000e-001 -2.598194e-001
      endloop
   endfacet
   facet normal -1.467121e-017 2.312965e-016 -1.000000e+000
      outer loop
         vertex 3.279565e+000 5.900000e-001 -2.598194e-001
         vertex 3.369565e+000 5.300000e-001 -2.598194e-001
         vertex 3.279565e+000 5.300000e-001 -2.598194e-001
      endloop
   endfacet
   facet normal 1.000000e+000 4.264996e-017 -1.467121e-017
      outer loop
         vertex 3.369565e+000 5.300000e-001 -1.698194e-001
         vertex 3.369565e+000 4.866987e-001 -1.448194e-001
         vertex 3.369565e+000 4.816987e-001 -1.534797e-001
      endloop
   endfacet
   facet normal 1.000000e+000 4.264996e-017 -1.467121e-017
      outer loop
         vertex 3.369565e+000 5.300000e-001 -2.598194e-001
         vertex 3.369565e+000 5.900000e-001 -2.598194e-001
         vertex 3.369565e+000 5.900000e-001 -1.698194e-001
      endloop
   endfacet
   facet normal 1.000000e+000 4.264996e-017 -1.467121e-017
      outer loop
         vertex 3.369565e+000 5.900000e-001 -1.698194e-001
         vertex 3.369565e+000 5.300000e-001 -1.698194e-001
         vertex 3.369565e+000 5.300000e-001 -2.598194e-001
      endloop
   endfacet
   facet normal 1.000000e+000 4.264996e-017 -1.467121e-017
      outer loop
         vertex 3.369565e+000 5.300000e-001 -2.598194e-001
         vertex 3.369565e+000 5.300000e-001 -1.698194e-001
         vertex 3.369565e+000 4.816987e-001 -1.534797e-001
      endloop
   endfacet
   facet normal 1.000000e+000 4.264996e-017 -1.467121e-017
      outer loop
         vertex 3.369565e+000 5.300000e-001 -2.598194e-001
         vertex 3.369565e+000 4.816987e-001 -1.534797e-001
         vertex 3.369565e+000 4.643454e-001 -2.219138e-001
      endloop
   endfacet
   facet normal 1.000000e+000 4.264996e-017 -1.467121e-017
      outer loop
         vertex 3.369565e+000 4.643454e-001 -2.219138e-001
         vertex 3.369565e+000 4.816987e-001 -1.534797e-001
         vertex 3.369565e+000 4.227514e-001 -1.194464e-001
      endloop
   endfacet
   facet normal 1.000000e+000 4.264996e-017 -1.467121e-017
      outer loop
         vertex 3.369565e+000 4.643454e-001 -2.219138e-001
         vertex 3.369565e+000 4.227514e-001 -1.194464e-001
         vertex 3.369565e+000 4.521267e-001 -2.134410e-001
      endloop
   endfacet
   facet normal 1.000000e+000 4.264996e-017 -1.467121e-017
      outer loop
         vertex 3.369565e+000 4.521267e-001 -2.134410e-001
         vertex 3.369565e+000 4.227514e-001 -1.194464e-001
         vertex 3.369565e+000 4.198952e-001 -1.340384e-001
      endloop
   endfacet
   facet normal 1.000000e+000 4.264996e-017 -1.467121e-017
      outer loop
         vertex 3.369565e+000 4.521267e-001 -2.134410e-001
         vertex 3.369565e+000 4.198952e-001 -1.340384e-001
         vertex 3.369565e+000 4.414697e-001 -2.030721e-001
      endloop
   endfacet
   facet normal 1.000000e+000 4.264996e-017 -1.467121e-017
      outer loop
         vertex 3.369565e+000 4.414697e-001 -2.030721e-001
         vertex 3.369565e+000 4.198952e-001 -1.340384e-001
         vertex 3.369565e+000 4.194806e-001 -1.489016e-001
      endloop
   endfacet
   facet normal 1.000000e+000 4.264996e-017 -1.467121e-017
      outer loop
         vertex 3.369565e+000 4.414697e-001 -2.030721e-001
         vertex 3.369565e+000 4.194806e-001 -1.489016e-001
         vertex 3.369565e+000 4.326654e-001 -1.910902e-001
      endloop
   endfacet
   facet normal 1.000000e+000 4.264996e-017 -1.467121e-017
      outer loop
         vertex 3.369565e+000 4.326654e-001 -1.910902e-001
         vertex 3.369565e+000 4.194806e-001 -1.489016e-001
         vertex 3.369565e+000 4.215187e-001 -1.636301e-001
      endloop
   endfacet
   facet normal 1.000000e+000 4.264996e-017 -1.467121e-017
      outer loop
         vertex 3.369565e+000 4.326654e-001 -1.910902e-001
         vertex 3.369565e+000 4.215187e-001 -1.636301e-001
         vertex 3.369565e+000 4.259540e-001 -1.778221e-001
      endloop
   endfacet
   facet normal -1.000000e+000 -4.264996e-017 1.467121e-017
      outer loop
         vertex 3.279565e+000 4.198952e-001 -1.340384e-001
         vertex 3.279565e+000 4.227514e-001 -1.194464e-001
         vertex 3.279565e+000 4.816987e-001 -1.534797e-001
      endloop
   endfacet
   facet normal -1.000000e+000 -4.264996e-017 1.467121e-017
      outer loop
         vertex 3.279565e+000 5.900000e-001 -1.698194e-001
         vertex 3.279565e+000 5.900000e-001 -2.598194e-001
         vertex 3.279565e+000 5.300000e-001 -1.698194e-001
      endloop
   endfacet
   facet normal -1.000000e+000 -4.264996e-017 1.467121e-017
      outer loop
         vertex 3.279565e+000 5.300000e-001 -1.698194e-001
         vertex 3.279565e+000 5.900000e-001 -2.598194e-001
         vertex 3.279565e+000 5.300000e-001 -2.598194e-001
      endloop
   endfacet
   facet normal -1.000000e+000 -4.264996e-017 1.467121e-017
      outer loop
         vertex 3.279565e+000 5.300000e-001 -1.698194e-001
         vertex 3.279565e+000 5.300000e-001 -2.598194e-001
         vertex 3.279565e+000 4.866987e-001 -1.448194e-001
      endloop
   endfacet
   facet normal -1.000000e+000 -4.264996e-017 1.467121e-017
      outer loop
         vertex 3.279565e+000 4.521267e-001 -2.134410e-001
         vertex 3.279565e+000 4.414697e-001 -2.030721e-001
         vertex 3.279565e+000 4.816987e-001 -1.534797e-001
      endloop
   endfacet
   facet normal -1.000000e+000 -4.264996e-017 1.467121e-017
      outer loop
         vertex 3.279565e+000 4.866987e-001 -1.448194e-001
         vertex 3.279565e+000 5.300000e-001 -2.598194e-001
         vertex 3.279565e+000 4.816987e-001 -1.534797e-001
      endloop
   endfacet
   facet normal -1.000000e+000 -4.264996e-017 1.467121e-017
      outer loop
         vertex 3.279565e+000 4.816987e-001 -1.534797e-001
         vertex 3.279565e+000 5.300000e-001 -2.598194e-001
         vertex 3.279565e+000 4.643454e-001 -2.219138e-001
      endloop
   endfacet
   facet normal -1.000000e+000 -4.264996e-017 1.467121e-017
      outer loop
         vertex 3.279565e+000 4.816987e-001 -1.534797e-001
         vertex 3.279565e+000 4.643454e-001 -2.219138e-001
         vertex 3.279565e+000 4.521267e-001 -2.134410e-001
      endloop
   endfacet
   facet normal -1.000000e+000 -4.264996e-017 1.467121e-017
      outer loop
         vertex 3.279565e+000 4.194806e-001 -1.489016e-001
         vertex 3.279565e+000 4.198952e-001 -1.340384e-001
         vertex 3.279565e+000 4.215187e-001 -1.636301e-001
      endloop
   endfacet
   facet normal -1.000000e+000 -4.264996e-017 1.467121e-017
      outer loop
         vertex 3.279565e+000 4.215187e-001 -1.636301e-001
         vertex 3.279565e+000 4.198952e-001 -1.340384e-001
         vertex 3.279565e+000 4.816987e-001 -1.534797e-001
      endloop
   endfacet
   facet normal -1.000000e+000 -4.264996e-017 1.467121e-017
      outer loop
         vertex 3.279565e+000 4.215187e-001 -1.636301e-001
         vertex 3.279565e+000 4.816987e-001 -1.534797e-001
         vertex 3.279565e+000 4.259540e-001 -1.778221e-001
      endloop
   endfacet
   facet normal -1.000000e+000 -4.264996e-017 1.467121e-017
      outer loop
         vertex 3.279565e+000 4.259540e-001 -1.778221e-001
         vertex 3.279565e+000 4.816987e-001 -1.534797e-001
         vertex 3.279565e+000 4.414697e-001 -2.030721e-001
      endloop
   endfacet
   facet normal -1.000000e+000 -4.264996e-017 1.467121e-017
      outer loop
         vertex 3.279565e+000 4.259540e-001 -1.778221e-001
         vertex 3.279565e+000 4.414697e-001 -2.030721e-001
         vertex 3.279565e+000 4.326654e-001 -1.910902e-001
      endloop
   endfacet
   facet normal 8.619340e-018 -5.000000e-001 -8.660254e-001
      outer loop
         vertex 3.369565e+000 4.816987e-001 -1.534797e-001
         vertex 3.524565e+000 4.816987e-001 -1.534797e-001
         vertex 3.369565e+000 4.227514e-001 -1.194464e-001
      endloop
   endfacet
   facet normal 8.619340e-018 -5.000000e-001 -8.660254e-001
      outer loop
         vertex 3.369565e+000 4.227514e-001 -1.194464e-001
         vertex 3.524565e+000 4.816987e-001 -1.534797e-001
         vertex 3.524565e+000 2.168911e-001 -5.929397e-004
      endloop
   endfacet
   facet normal 8.619340e-018 -5.000000e-001 -8.660254e-001
      outer loop
         vertex 3.369565e+000 4.227514e-001 -1.194464e-001
         vertex 3.524565e+000 2.168911e-001 -5.929397e-004
         vertex 3.279565e+000 4.227514e-001 -1.194464e-001
      endloop
   endfacet
   facet normal 8.619340e-018 -5.000000e-001 -8.660254e-001
      outer loop
         vertex 3.279565e+000 4.227514e-001 -1.194464e-001
         vertex 3.524565e+000 2.168911e-001 -5.929397e-004
         vertex 3.124565e+000 2.168911e-001 -5.929397e-004
      endloop
   endfacet
   facet normal 8.619340e-018 -5.000000e-001 -8.660254e-001
      outer loop
         vertex 3.279565e+000 4.227514e-001 -1.194464e-001
         vertex 3.124565e+000 2.168911e-001 -5.929397e-004
         vertex 3.279565e+000 4.816987e-001 -1.534797e-001
      endloop
   endfacet
   facet normal 8.619340e-018 -5.000000e-001 -8.660254e-001
      outer loop
         vertex 3.279565e+000 4.816987e-001 -1.534797e-001
         vertex 3.124565e+000 2.168911e-001 -5.929397e-004
         vertex 3.124565e+000 4.816987e-001 -1.534797e-001
      endloop
   endfacet
   facet normal -4.427155e-017 8.660254e-001 -5.000000e-001
      outer loop
         vertex 3.524565e+000 4.866987e-001 -1.448194e-001
         vertex 3.524565e+000 4.816987e-001 -1.534797e-001
         vertex 3.369565e+000 4.866987e-001 -1.448194e-001
      endloop
   endfacet
   facet normal -4.427155e-017 8.660254e-001 -5.000000e-001
      outer loop
         vertex 3.369565e+000 4.866987e-001 -1.448194e-001
         vertex 3.524565e+000 4.816987e-001 -1.534797e-001
         vertex 3.369565e+000 4.816987e-001 -1.534797e-001
      endloop
   endfacet
   facet normal -4.264996e-017 1.000000e+000 4.491357e-016
      outer loop
         vertex 3.524565e+000 2.268911e-001 2.251806e-001
         vertex 3.524565e+000 2.268911e-001 5.180575e-003
         vertex 3.124565e+000 2.268911e-001 2.251806e-001
      endloop
   endfacet
   facet normal -4.264996e-017 1.000000e+000 4.491357e-016
      outer loop
         vertex 3.124565e+000 2.268911e-001 2.251806e-001
         vertex 3.524565e+000 2.268911e-001 5.180575e-003
         vertex 3.124565e+000 2.268911e-001 5.180575e-003
      endloop
   endfacet
   facet normal 1.467121e-017 0.000000e+000 1.000000e+000
      outer loop
         vertex 3.524565e+000 2.168911e-001 2.251806e-001
         vertex 3.524565e+000 2.268911e-001 2.251806e-001
         vertex 3.124565e+000 2.168911e-001 2.251806e-001
      endloop
   endfacet
   facet normal 1.467121e-017 0.000000e+000 1.000000e+000
      outer loop
         vertex 3.124565e+000 2.168911e-001 2.251806e-001
         vertex 3.524565e+000 2.268911e-001 2.251806e-001
         vertex 3.124565e+000 2.268911e-001 2.251806e-001
      endloop
   endfacet
   facet normal 4.264996e-017 -1.000000e+000 -4.491357e-016
      outer loop
         vertex 3.524565e+000 2.168911e-001 -5.929397e-004
         vertex 3.524565e+000 2.168911e-001 2.251806e-001
         vertex 3.124565e+000 2.168911e-001 -5.929397e-004
      endloop
   endfacet
   facet normal 4.264996e-017 -1.000000e+000 -4.491357e-016
      outer loop
         vertex 3.124565e+000 2.168911e-001 -5.929397e-004
         vertex 3.524565e+000 2.168911e-001 2.251806e-001
         vertex 3.124565e+000 2.168911e-001 2.251806e-001
      endloop
   endfacet
   facet normal -4.427155e-017 8.660254e-001 -5.000000e-001
      outer loop
         vertex 3.279565e+000 4.816987e-001 -1.534797e-001
         vertex 3.124565e+000 4.816987e-001 -1.534797e-001
         vertex 3.279565e+000 4.866987e-001 -1.448194e-001
      endloop
   endfacet
   facet normal -4.427155e-017 8.660254e-001 -5.000000e-001
      outer loop
         vertex 3.279565e+000 4.866987e-001 -1.448194e-001
         vertex 3.124565e+000 4.816987e-001 -1.534797e-001
         vertex 3.124565e+000 4.866987e-001 -1.448194e-001
      endloop
   endfacet
   facet normal 1.000000e+000 4.264996e-017 -1.467121e-017
      outer loop
         vertex 3.524565e+000 2.268911e-001 2.251806e-001
         vertex 3.524565e+000 2.168911e-001 2.251806e-001
         vertex 3.524565e+000 2.268911e-001 5.180575e-003
      endloop
   endfacet
   facet normal 1.000000e+000 4.264996e-017 -1.467121e-017
      outer loop
         vertex 3.524565e+000 2.268911e-001 5.180575e-003
         vertex 3.524565e+000 2.168911e-001 2.251806e-001
         vertex 3.524565e+000 2.168911e-001 -5.929397e-004
      endloop
   endfacet
   facet normal 1.000000e+000 4.264996e-017 -1.467121e-017
      outer loop
         vertex 3.524565e+000 2.268911e-001 5.180575e-003
         vertex 3.524565e+000 2.168911e-001 -5.929397e-004
         vertex 3.524565e+000 4.866987e-001 -1.448194e-001
      endloop
   endfacet
   facet normal 1.000000e+000 4.264996e-017 -1.467121e-017
      outer loop
         vertex 3.524565e+000 4.866987e-001 -1.448194e-001
         vertex 3.524565e+000 2.168911e-001 -5.929397e-004
         vertex 3.524565e+000 4.816987e-001 -1.534797e-001
      endloop
   endfacet
   facet normal -1.000000e+000 -4.264996e-017 1.467121e-017
      outer loop
         vertex 3.124565e+000 4.866987e-001 -1.448194e-001
         vertex 3.124565e+000 4.816987e-001 -1.534797e-001
         vertex 3.124565e+000 2.268911e-001 5.180575e-003
      endloop
   endfacet
   facet normal -1.000000e+000 -4.264996e-017 1.467121e-017
      outer loop
         vertex 3.124565e+000 2.268911e-001 5.180575e-003
         vertex 3.124565e+000 4.816987e-001 -1.534797e-001
         vertex 3.124565e+000 2.168911e-001 -5.929397e-004
      endloop
   endfacet
   facet normal -1.000000e+000 -4.264996e-017 1.467121e-017
      outer loop
         vertex 3.124565e+000 2.268911e-001 5.180575e-003
         vertex 3.124565e+000 2.168911e-001 -5.929397e-004
         vertex 3.124565e+000 2.268911e-001 2.251806e-001
      endloop
   endfacet
   facet normal -1.000000e+000 -4.264996e-017 1.467121e-017
      outer loop
         vertex 3.124565e+000 2.268911e-001 2.251806e-001
         vertex 3.124565e+000 2.168911e-001 -5.929397e-004
         vertex 3.124565e+000 2.168911e-001 2.251806e-001
      endloop
   endfacet
   facet normal 1.467121e-017 0.000000e+000 1.000000e+000
      outer loop
         vertex 3.294565e+000 9.300000e-001 -7.248194e-001
         vertex 3.284565e+000 9.400000e-001 -7.248194e-001
         vertex 3.294565e+000 8.700000e-001 -7.248194e-001
      endloop
   endfacet
   facet normal 1.467121e-017 0.000000e+000 1.000000e+000
      outer loop
         vertex 3.294565e+000 8.700000e-001 -7.248194e-001
         vertex 3.284565e+000 9.400000e-001 -7.248194e-001
         vertex 3.284565e+000 8.600000e-001 -7.248194e-001
      endloop
   endfacet
   facet normal 1.467121e-017 0.000000e+000 1.000000e+000
      outer loop
         vertex 3.294565e+000 8.700000e-001 -7.248194e-001
         vertex 3.284565e+000 8.600000e-001 -7.248194e-001
         vertex 3.354565e+000 8.700000e-001 -7.248194e-001
      endloop
   endfacet
   facet normal 1.467121e-017 0.000000e+000 1.000000e+000
      outer loop
         vertex 3.354565e+000 8.700000e-001 -7.248194e-001
         vertex 3.284565e+000 8.600000e-001 -7.248194e-001
         vertex 3.364565e+000 8.600000e-001 -7.248194e-001
      endloop
   endfacet
   facet normal 1.467121e-017 0.000000e+000 1.000000e+000
      outer loop
         vertex 3.354565e+000 8.700000e-001 -7.248194e-001
         vertex 3.364565e+000 8.600000e-001 -7.248194e-001
         vertex 3.354565e+000 9.300000e-001 -7.248194e-001
      endloop
   endfacet
   facet normal 1.467121e-017 0.000000e+000 1.000000e+000
      outer loop
         vertex 3.354565e+000 9.300000e-001 -7.248194e-001
         vertex 3.364565e+000 8.600000e-001 -7.248194e-001
         vertex 3.364565e+000 9.400000e-001 -7.248194e-001
      endloop
   endfacet
   facet normal 1.467121e-017 0.000000e+000 1.000000e+000
      outer loop
         vertex 3.354565e+000 9.300000e-001 -7.248194e-001
         vertex 3.364565e+000 9.400000e-001 -7.248194e-001
         vertex 3.294565e+000 9.300000e-001 -7.248194e-001
      endloop
   endfacet
   facet normal 1.467121e-017 0.000000e+000 1.000000e+000
      outer loop
         vertex 3.294565e+000 9.300000e-001 -7.248194e-001
         vertex 3.364565e+000 9.400000e-001 -7.248194e-001
         vertex 3.284565e+000 9.400000e-001 -7.248194e-001
      endloop
   endfacet
   facet normal -1.000000e+000 -4.264996e-017 1.467121e-017
      outer loop
         vertex 3.284565e+000 8.600000e-001 -7.948194e-001
         vertex 3.284565e+000 8.600000e-001 -7.248194e-001
         vertex 3.284565e+000 9.400000e-001 -7.948194e-001
      endloop
   endfacet
   facet normal -1.000000e+000 -4.264996e-017 1.467121e-017
      outer loop
         vertex 3.284565e+000 9.400000e-001 -7.948194e-001
         vertex 3.284565e+000 8.600000e-001 -7.248194e-001
         vertex 3.284565e+000 9.400000e-001 -7.248194e-001
      endloop
   endfacet
   facet normal 1.467121e-017 0.000000e+000 1.000000e+000
      outer loop
         vertex 3.214565e+000 8.600000e-001 -7.948194e-001
         vertex 3.284565e+000 8.600000e-001 -7.948194e-001
         vertex 3.214565e+000 9.400000e-001 -7.948194e-001
      endloop
   endfacet
   facet normal 1.467121e-017 0.000000e+000 1.000000e+000
      outer loop
         vertex 3.214565e+000 9.400000e-001 -7.948194e-001
         vertex 3.284565e+000 8.600000e-001 -7.948194e-001
         vertex 3.284565e+000 9.400000e-001 -7.948194e-001
      endloop
   endfacet
   facet normal -1.467121e-017 0.000000e+000 -1.000000e+000
      outer loop
         vertex 3.314565e+000 8.600000e-001 -8.748194e-001
         vertex 3.214565e+000 8.600000e-001 -8.748194e-001
         vertex 3.314565e+000 9.400000e-001 -8.748194e-001
      endloop
   endfacet
   facet normal -1.467121e-017 0.000000e+000 -1.000000e+000
      outer loop
         vertex 3.314565e+000 9.400000e-001 -8.748194e-001
         vertex 3.214565e+000 8.600000e-001 -8.748194e-001
         vertex 3.214565e+000 9.400000e-001 -8.748194e-001
      endloop
   endfacet
   facet normal 1.000000e+000 4.264996e-017 -1.467121e-017
      outer loop
         vertex 3.364565e+000 9.400000e-001 -8.248194e-001
         vertex 3.364565e+000 9.400000e-001 -7.248194e-001
         vertex 3.364565e+000 8.600000e-001 -8.248194e-001
      endloop
   endfacet
   facet normal 1.000000e+000 4.264996e-017 -1.467121e-017
      outer loop
         vertex 3.364565e+000 8.600000e-001 -8.248194e-001
         vertex 3.364565e+000 9.400000e-001 -7.248194e-001
         vertex 3.364565e+000 8.600000e-001 -7.248194e-001
      endloop
   endfacet
   facet normal 4.264996e-017 -1.000000e+000 5.551115e-017
      outer loop
         vertex 3.284565e+000 8.600000e-001 -7.948194e-001
         vertex 3.214565e+000 8.600000e-001 -7.948194e-001
         vertex 3.214565e+000 8.600000e-001 -8.748194e-001
      endloop
   endfacet
   facet normal 4.264996e-017 -1.000000e+000 5.551115e-017
      outer loop
         vertex 3.364565e+000 8.600000e-001 -7.248194e-001
         vertex 3.284565e+000 8.600000e-001 -7.248194e-001
         vertex 3.364565e+000 8.600000e-001 -8.248194e-001
      endloop
   endfacet
   facet normal 4.264996e-017 -1.000000e+000 5.551115e-017
      outer loop
         vertex 3.364565e+000 8.600000e-001 -8.248194e-001
         vertex 3.284565e+000 8.600000e-001 -7.248194e-001
         vertex 3.284565e+000 8.600000e-001 -7.948194e-001
      endloop
   endfacet
   facet normal 4.264996e-017 -1.000000e+000 5.551115e-017
      outer loop
         vertex 3.364565e+000 8.600000e-001 -8.248194e-001
         vertex 3.284565e+000 8.600000e-001 -7.948194e-001
         vertex 3.314565e+000 8.600000e-001 -8.748194e-001
      endloop
   endfacet
   facet normal 4.264996e-017 -1.000000e+000 5.551115e-017
      outer loop
         vertex 3.314565e+000 8.600000e-001 -8.748194e-001
         vertex 3.284565e+000 8.600000e-001 -7.948194e-001
         vertex 3.214565e+000 8.600000e-001 -8.748194e-001
      endloop
   endfacet
   facet normal -4.264996e-017 1.000000e+000 -5.551115e-017
      outer loop
         vertex 3.214565e+000 9.400000e-001 -7.948194e-001
         vertex 3.284565e+000 9.400000e-001 -7.948194e-001
         vertex 3.214565e+000 9.400000e-001 -8.748194e-001
      endloop
   endfacet
   facet normal -4.264996e-017 1.000000e+000 -5.551115e-017
      outer loop
         vertex 3.214565e+000 9.400000e-001 -8.748194e-001
         vertex 3.284565e+000 9.400000e-001 -7.948194e-001
         vertex 3.314565e+000 9.400000e-001 -8.748194e-001
      endloop
   endfacet
   facet normal -4.264996e-017 1.000000e+000 -5.551115e-017
      outer loop
         vertex 3.284565e+000 9.400000e-001 -7.248194e-001
         vertex 3.364565e+000 9.400000e-001 -7.248194e-001
         vertex 3.284565e+000 9.400000e-001 -7.948194e-001
      endloop
   endfacet
   facet normal -4.264996e-017 1.000000e+000 -5.551115e-017
      outer loop
         vertex 3.284565e+000 9.400000e-001 -7.948194e-001
         vertex 3.364565e+000 9.400000e-001 -7.248194e-001
         vertex 3.364565e+000 9.400000e-001 -8.248194e-001
      endloop
   endfacet
   facet normal -4.264996e-017 1.000000e+000 -5.551115e-017
      outer loop
         vertex 3.284565e+000 9.400000e-001 -7.948194e-001
         vertex 3.364565e+000 9.400000e-001 -8.248194e-001
         vertex 3.314565e+000 9.400000e-001 -8.748194e-001
      endloop
   endfacet
   facet normal 7.071068e-001 3.015808e-017 -7.071068e-001
      outer loop
         vertex 3.314565e+000 9.400000e-001 -8.748194e-001
         vertex 3.364565e+000 9.400000e-001 -8.248194e-001
         vertex 3.314565e+000 8.600000e-001 -8.748194e-001
      endloop
   endfacet
   facet normal 7.071068e-001 3.015808e-017 -7.071068e-001
      outer loop
         vertex 3.314565e+000 8.600000e-001 -8.748194e-001
         vertex 3.364565e+000 9.400000e-001 -8.248194e-001
         vertex 3.364565e+000 8.600000e-001 -8.248194e-001
      endloop
   endfacet
   facet normal -1.712352e-017 5.807914e-002 -9.983120e-001
      outer loop
         vertex 2.814565e+000 9.052094e-001 -8.643637e-001
         vertex 3.214565e+000 9.000000e-001 -8.648194e-001
         vertex 2.814565e+000 9.000000e-001 -8.648194e-001
      endloop
   endfacet
   facet normal -1.216937e-017 -5.807914e-002 -9.983120e-001
      outer loop
         vertex 2.814565e+000 9.000000e-001 -8.648194e-001
         vertex 3.214565e+000 9.000000e-001 -8.648194e-001
         vertex 3.214565e+000 8.947905e-001 -8.643637e-001
      endloop
   endfacet
   facet normal -9.617750e-018 -1.161583e-001 -9.932307e-001
      outer loop
         vertex 2.814565e+000 9.000000e-001 -8.648194e-001
         vertex 3.214565e+000 8.947905e-001 -8.643637e-001
         vertex 2.814565e+000 8.947905e-001 -8.643637e-001
      endloop
   endfacet
   facet normal -4.442941e-018 -2.305518e-001 -9.730601e-001
      outer loop
         vertex 2.814565e+000 8.947905e-001 -8.643637e-001
         vertex 3.214565e+000 8.947905e-001 -8.643637e-001
         vertex 3.214565e+000 8.897394e-001 -8.630102e-001
      endloop
   endfacet
   facet normal -1.819752e-018 -2.868663e-001 -9.579706e-001
      outer loop
         vertex 2.814565e+000 8.947905e-001 -8.643637e-001
         vertex 3.214565e+000 8.897394e-001 -8.630102e-001
         vertex 2.814565e+000 8.897394e-001 -8.630102e-001
      endloop
   endfacet
   facet normal 3.418487e-018 -3.960194e-001 -9.182422e-001
      outer loop
         vertex 2.814565e+000 8.897394e-001 -8.630102e-001
         vertex 3.214565e+000 8.897394e-001 -8.630102e-001
         vertex 3.214565e+000 8.850000e-001 -8.608001e-001
      endloop
   endfacet
   facet normal 6.033538e-018 -4.488580e-001 -8.936031e-001
      outer loop
         vertex 2.814565e+000 8.897394e-001 -8.630102e-001
         vertex 3.214565e+000 8.850000e-001 -8.608001e-001
         vertex 2.814565e+000 8.850000e-001 -8.608001e-001
      endloop
   endfacet
   facet normal 1.117604e-017 -5.494540e-001 -8.355240e-001
      outer loop
         vertex 2.814565e+000 8.850000e-001 -8.608001e-001
         vertex 3.214565e+000 8.850000e-001 -8.608001e-001
         vertex 3.214565e+000 8.807164e-001 -8.578007e-001
      endloop
   endfacet
   facet normal 1.370350e-017 -5.972114e-001 -8.020839e-001
      outer loop
         vertex 2.814565e+000 8.850000e-001 -8.608001e-001
         vertex 3.214565e+000 8.807164e-001 -8.578007e-001
         vertex 2.814565e+000 8.807164e-001 -8.578007e-001
      endloop
   endfacet
   facet normal 1.859402e-017 -6.861938e-001 -7.274188e-001
      outer loop
         vertex 2.814565e+000 8.807164e-001 -8.578007e-001
         vertex 3.214565e+000 8.807164e-001 -8.578007e-001
         vertex 3.214565e+000 8.770187e-001 -8.541030e-001
      endloop
   endfacet
   facet normal 2.095709e-017 -7.274188e-001 -6.861938e-001
      outer loop
         vertex 2.814565e+000 8.807164e-001 -8.578007e-001
         vertex 3.214565e+000 8.770187e-001 -8.541030e-001
         vertex 2.814565e+000 8.770187e-001 -8.541030e-001
      endloop
   endfacet
   facet normal 2.544703e-017 -8.020839e-001 -5.972114e-001
      outer loop
         vertex 2.814565e+000 8.770187e-001 -8.541030e-001
         vertex 3.214565e+000 8.770187e-001 -8.541030e-001
         vertex 3.214565e+000 8.740193e-001 -8.498194e-001
      endloop
   endfacet
   facet normal 2.757391e-017 -8.355240e-001 -5.494540e-001
      outer loop
         vertex 2.814565e+000 8.770187e-001 -8.541030e-001
         vertex 3.214565e+000 8.740193e-001 -8.498194e-001
         vertex 2.814565e+000 8.740193e-001 -8.498194e-001
      endloop
   endfacet
   facet normal 3.152685e-017 -8.936031e-001 -4.488580e-001
      outer loop
         vertex 2.814565e+000 8.740193e-001 -8.498194e-001
         vertex 3.214565e+000 8.740193e-001 -8.498194e-001
         vertex 3.214565e+000 8.718092e-001 -8.450800e-001
      endloop
   endfacet
   facet normal 3.335291e-017 -9.182422e-001 -3.960194e-001
      outer loop
         vertex 2.814565e+000 8.740193e-001 -8.498194e-001
         vertex 3.214565e+000 8.718092e-001 -8.450800e-001
         vertex 2.814565e+000 8.718092e-001 -8.450800e-001
      endloop
   endfacet
   facet normal 3.664873e-017 -9.579706e-001 -2.868663e-001
      outer loop
         vertex 2.814565e+000 8.718092e-001 -8.450800e-001
         vertex 3.214565e+000 8.718092e-001 -8.450800e-001
         vertex 3.214565e+000 8.704557e-001 -8.400289e-001
      endloop
   endfacet
   facet normal 3.811850e-017 -9.730601e-001 -2.305518e-001
      outer loop
         vertex 2.814565e+000 8.718092e-001 -8.450800e-001
         vertex 3.214565e+000 8.704557e-001 -8.400289e-001
         vertex 2.814565e+000 8.704557e-001 -8.400289e-001
      endloop
   endfacet
   facet normal 4.065707e-017 -9.932307e-001 -1.161583e-001
      outer loop
         vertex 2.814565e+000 8.704557e-001 -8.400289e-001
         vertex 3.214565e+000 8.704557e-001 -8.400289e-001
         vertex 3.214565e+000 8.700000e-001 -8.348194e-001
      endloop
   endfacet
   facet normal 4.172588e-017 -9.983120e-001 -5.807914e-002
      outer loop
         vertex 2.814565e+000 8.704557e-001 -8.400289e-001
         vertex 3.214565e+000 8.700000e-001 -8.348194e-001
         vertex 2.814565e+000 8.700000e-001 -8.348194e-001
      endloop
   endfacet
   facet normal 4.343006e-017 -9.983120e-001 5.807914e-002
      outer loop
         vertex 2.814565e+000 8.700000e-001 -8.348194e-001
         vertex 3.214565e+000 8.700000e-001 -8.348194e-001
         vertex 3.214565e+000 8.704557e-001 -8.296100e-001
      endloop
   endfacet
   facet normal 4.406543e-017 -9.932307e-001 1.161583e-001
      outer loop
         vertex 2.814565e+000 8.700000e-001 -8.348194e-001
         vertex 3.214565e+000 8.704557e-001 -8.296100e-001
         vertex 2.814565e+000 8.704557e-001 -8.296100e-001
      endloop
   endfacet
   facet normal 4.488345e-017 -9.730601e-001 2.305518e-001
      outer loop
         vertex 2.814565e+000 8.704557e-001 -8.296100e-001
         vertex 3.214565e+000 8.704557e-001 -8.296100e-001
         vertex 3.214565e+000 8.718092e-001 -8.245588e-001
      endloop
   endfacet
   facet normal 4.506608e-017 -9.579706e-001 2.868663e-001
      outer loop
         vertex 2.814565e+000 8.704557e-001 -8.296100e-001
         vertex 3.214565e+000 8.718092e-001 -8.245588e-001
         vertex 2.814565e+000 8.718092e-001 -8.245588e-001
      endloop
   endfacet
   facet normal 4.497308e-017 -9.182422e-001 3.960194e-001
      outer loop
         vertex 2.814565e+000 8.718092e-001 -8.245588e-001
         vertex 3.214565e+000 8.718092e-001 -8.245588e-001
         vertex 3.214565e+000 8.740193e-001 -8.198194e-001
      endloop
   endfacet
   facet normal 4.469743e-017 -8.936031e-001 4.488580e-001
      outer loop
         vertex 2.814565e+000 8.718092e-001 -8.245588e-001
         vertex 3.214565e+000 8.740193e-001 -8.198194e-001
         vertex 2.814565e+000 8.740193e-001 -8.198194e-001
      endloop
   endfacet
   facet normal 4.369622e-017 -8.355240e-001 5.494540e-001
      outer loop
         vertex 2.814565e+000 8.740193e-001 -8.198194e-001
         vertex 3.214565e+000 8.740193e-001 -8.198194e-001
         vertex 3.214565e+000 8.770187e-001 -8.155358e-001
      endloop
   endfacet
   facet normal 4.297066e-017 -8.020839e-001 5.972114e-001
      outer loop
         vertex 2.814565e+000 8.740193e-001 -8.198194e-001
         vertex 3.214565e+000 8.770187e-001 -8.155358e-001
         vertex 2.814565e+000 8.770187e-001 -8.155358e-001
      endloop
   endfacet
   facet normal 4.109168e-017 -7.274188e-001 6.861938e-001
      outer loop
         vertex 2.814565e+000 8.770187e-001 -8.155358e-001
         vertex 3.214565e+000 8.770187e-001 -8.155358e-001
         vertex 3.214565e+000 8.807164e-001 -8.118381e-001
      endloop
   endfacet
   facet normal 3.993825e-017 -6.861938e-001 7.274188e-001
      outer loop
         vertex 2.814565e+000 8.770187e-001 -8.155358e-001
         vertex 3.214565e+000 8.807164e-001 -8.118381e-001
         vertex 2.814565e+000 8.807164e-001 -8.118381e-001
      endloop
   endfacet
   facet normal 3.723858e-017 -5.972114e-001 8.020839e-001
      outer loop
         vertex 2.814565e+000 8.807164e-001 -8.118381e-001
         vertex 3.214565e+000 8.807164e-001 -8.118381e-001
         vertex 3.214565e+000 8.850000e-001 -8.088387e-001
      endloop
   endfacet
   facet normal 3.569234e-017 -5.494540e-001 8.355240e-001
      outer loop
         vertex 2.814565e+000 8.807164e-001 -8.118381e-001
         vertex 3.214565e+000 8.850000e-001 -8.088387e-001
         vertex 2.814565e+000 8.850000e-001 -8.088387e-001
      endloop
   endfacet
   facet normal 3.225402e-017 -4.488580e-001 8.936031e-001
      outer loop
         vertex 2.814565e+000 8.850000e-001 -8.088387e-001
         vertex 3.214565e+000 8.850000e-001 -8.088387e-001
         vertex 3.214565e+000 8.897394e-001 -8.066286e-001
      endloop
   endfacet
   facet normal 3.036193e-017 -3.960194e-001 9.182422e-001
      outer loop
         vertex 2.814565e+000 8.850000e-001 -8.088387e-001
         vertex 3.214565e+000 8.897394e-001 -8.066286e-001
         vertex 2.814565e+000 8.897394e-001 -8.066286e-001
      endloop
   endfacet
   facet normal 2.628942e-017 -2.868663e-001 9.579706e-001
      outer loop
         vertex 2.814565e+000 8.897394e-001 -8.066286e-001
         vertex 3.214565e+000 8.897394e-001 -8.066286e-001
         vertex 3.214565e+000 8.947905e-001 -8.052752e-001
      endloop
   endfacet
   facet normal 2.410899e-017 -2.305518e-001 9.730601e-001
      outer loop
         vertex 2.814565e+000 8.897394e-001 -8.066286e-001
         vertex 3.214565e+000 8.947905e-001 -8.052752e-001
         vertex 2.814565e+000 8.947905e-001 -8.052752e-001
      endloop
   endfacet
   facet normal 1.952604e-017 -1.161583e-001 9.932307e-001
      outer loop
         vertex 2.814565e+000 8.947905e-001 -8.052752e-001
         vertex 3.214565e+000 8.947905e-001 -8.052752e-001
         vertex 3.214565e+000 9.000000e-001 -8.048194e-001
      endloop
   endfacet
   facet normal 1.712352e-017 -5.807914e-002 9.983120e-001
      outer loop
         vertex 2.814565e+000 8.947905e-001 -8.052752e-001
         vertex 3.214565e+000 9.000000e-001 -8.048194e-001
         vertex 2.814565e+000 9.000000e-001 -8.048194e-001
      endloop
   endfacet
   facet normal 1.216937e-017 5.807914e-002 9.983120e-001
      outer loop
         vertex 2.814565e+000 9.000000e-001 -8.048194e-001
         vertex 3.214565e+000 9.000000e-001 -8.048194e-001
         vertex 3.214565e+000 9.052094e-001 -8.052752e-001
      endloop
   endfacet
   facet normal 9.617750e-018 1.161583e-001 9.932307e-001
      outer loop
         vertex 2.814565e+000 9.000000e-001 -8.048194e-001
         vertex 3.214565e+000 9.052094e-001 -8.052752e-001
         vertex 2.814565e+000 9.052094e-001 -8.052752e-001
      endloop
   endfacet
   facet normal 4.442941e-018 2.305518e-001 9.730601e-001
      outer loop
         vertex 2.814565e+000 9.052094e-001 -8.052752e-001
         vertex 3.214565e+000 9.052094e-001 -8.052752e-001
         vertex 3.214565e+000 9.102606e-001 -8.066286e-001
      endloop
   endfacet
   facet normal 1.819752e-018 2.868663e-001 9.579706e-001
      outer loop
         vertex 2.814565e+000 9.052094e-001 -8.052752e-001
         vertex 3.214565e+000 9.102606e-001 -8.066286e-001
         vertex 2.814565e+000 9.102606e-001 -8.066286e-001
      endloop
   endfacet
   facet normal -3.418487e-018 3.960194e-001 9.182422e-001
      outer loop
         vertex 2.814565e+000 9.102606e-001 -8.066286e-001
         vertex 3.214565e+000 9.102606e-001 -8.066286e-001
         vertex 3.214565e+000 9.150000e-001 -8.088387e-001
      endloop
   endfacet
   facet normal -6.033538e-018 4.488580e-001 8.936031e-001
      outer loop
         vertex 2.814565e+000 9.102606e-001 -8.066286e-001
         vertex 3.214565e+000 9.150000e-001 -8.088387e-001
         vertex 2.814565e+000 9.150000e-001 -8.088387e-001
      endloop
   endfacet
   facet normal -1.117604e-017 5.494540e-001 8.355240e-001
      outer loop
         vertex 2.814565e+000 9.150000e-001 -8.088387e-001
         vertex 3.214565e+000 9.150000e-001 -8.088387e-001
         vertex 3.214565e+000 9.192836e-001 -8.118381e-001
      endloop
   endfacet
   facet normal -1.370350e-017 5.972114e-001 8.020839e-001
      outer loop
         vertex 2.814565e+000 9.150000e-001 -8.088387e-001
         vertex 3.214565e+000 9.192836e-001 -8.118381e-001
         vertex 2.814565e+000 9.192836e-001 -8.118381e-001
      endloop
   endfacet
   facet normal -1.859402e-017 6.861938e-001 7.274188e-001
      outer loop
         vertex 2.814565e+000 9.192836e-001 -8.118381e-001
         vertex 3.214565e+000 9.192836e-001 -8.118381e-001
         vertex 3.214565e+000 9.229813e-001 -8.155358e-001
      endloop
   endfacet
   facet normal -2.095709e-017 7.274188e-001 6.861938e-001
      outer loop
         vertex 2.814565e+000 9.192836e-001 -8.118381e-001
         vertex 3.214565e+000 9.229813e-001 -8.155358e-001
         vertex 2.814565e+000 9.229813e-001 -8.155358e-001
      endloop
   endfacet
   facet normal -2.544703e-017 8.020839e-001 5.972114e-001
      outer loop
         vertex 2.814565e+000 9.229813e-001 -8.155358e-001
         vertex 3.214565e+000 9.229813e-001 -8.155358e-001
         vertex 3.214565e+000 9.259807e-001 -8.198194e-001
      endloop
   endfacet
   facet normal -2.757391e-017 8.355240e-001 5.494540e-001
      outer loop
         vertex 2.814565e+000 9.229813e-001 -8.155358e-001
         vertex 3.214565e+000 9.259807e-001 -8.198194e-001
         vertex 2.814565e+000 9.259807e-001 -8.198194e-001
      endloop
   endfacet
   facet normal -3.152685e-017 8.936031e-001 4.488580e-001
      outer loop
         vertex 2.814565e+000 9.259807e-001 -8.198194e-001
         vertex 3.214565e+000 9.259807e-001 -8.198194e-001
         vertex 3.214565e+000 9.281908e-001 -8.245588e-001
      endloop
   endfacet
   facet normal -3.335291e-017 9.182422e-001 3.960194e-001
      outer loop
         vertex 2.814565e+000 9.259807e-001 -8.198194e-001
         vertex 3.214565e+000 9.281908e-001 -8.245588e-001
         vertex 2.814565e+000 9.281908e-001 -8.245588e-001
      endloop
   endfacet
   facet normal -3.664873e-017 9.579706e-001 2.868663e-001
      outer loop
         vertex 2.814565e+000 9.281908e-001 -8.245588e-001
         vertex 3.214565e+000 9.281908e-001 -8.245588e-001
         vertex 3.214565e+000 9.295442e-001 -8.296100e-001
      endloop
   endfacet
   facet normal -3.811850e-017 9.730601e-001 2.305518e-001
      outer loop
         vertex 2.814565e+000 9.281908e-001 -8.245588e-001
         vertex 3.214565e+000 9.295442e-001 -8.296100e-001
         vertex 2.814565e+000 9.295442e-001 -8.296100e-001
      endloop
   endfacet
   facet normal -4.065707e-017 9.932307e-001 1.161583e-001
      outer loop
         vertex 2.814565e+000 9.295442e-001 -8.296100e-001
         vertex 3.214565e+000 9.295442e-001 -8.296100e-001
         vertex 3.214565e+000 9.300000e-001 -8.348194e-001
      endloop
   endfacet
   facet normal -4.172588e-017 9.983120e-001 5.807914e-002
      outer loop
         vertex 2.814565e+000 9.295442e-001 -8.296100e-001
         vertex 3.214565e+000 9.300000e-001 -8.348194e-001
         vertex 2.814565e+000 9.300000e-001 -8.348194e-001
      endloop
   endfacet
   facet normal -4.343006e-017 9.983120e-001 -5.807914e-002
      outer loop
         vertex 2.814565e+000 9.300000e-001 -8.348194e-001
         vertex 3.214565e+000 9.300000e-001 -8.348194e-001
         vertex 3.214565e+000 9.295442e-001 -8.400289e-001
      endloop
   endfacet
   facet normal -4.406543e-017 9.932307e-001 -1.161583e-001
      outer loop
         vertex 2.814565e+000 9.300000e-001 -8.348194e-001
         vertex 3.214565e+000 9.295442e-001 -8.400289e-001
         vertex 2.814565e+000 9.295442e-001 -8.400289e-001
      endloop
   endfacet
   facet normal -4.488345e-017 9.730601e-001 -2.305518e-001
      outer loop
         vertex 2.814565e+000 9.295442e-001 -8.400289e-001
         vertex 3.214565e+000 9.295442e-001 -8.400289e-001
         vertex 3.214565e+000 9.281908e-001 -8.450800e-001
      endloop
   endfacet
   facet normal -4.506608e-017 9.579706e-001 -2.868663e-001
      outer loop
         vertex 2.814565e+000 9.295442e-001 -8.400289e-001
         vertex 3.214565e+000 9.281908e-001 -8.450800e-001
         vertex 2.814565e+000 9.281908e-001 -8.450800e-001
      endloop
   endfacet
   facet normal -4.497308e-017 9.182422e-001 -3.960194e-001
      outer loop
         vertex 2.814565e+000 9.281908e-001 -8.450800e-001
         vertex 3.214565e+000 9.281908e-001 -8.450800e-001
         vertex 3.214565e+000 9.259807e-001 -8.498194e-001
      endloop
   endfacet
   facet normal -4.469743e-017 8.936031e-001 -4.488580e-001
      outer loop
         vertex 2.814565e+000 9.281908e-001 -8.450800e-001
         vertex 3.214565e+000 9.259807e-001 -8.498194e-001
         vertex 2.814565e+000 9.259807e-001 -8.498194e-001
      endloop
   endfacet
   facet normal -4.369622e-017 8.355240e-001 -5.494540e-001
      outer loop
         vertex 2.814565e+000 9.259807e-001 -8.498194e-001
         vertex 3.214565e+000 9.259807e-001 -8.498194e-001
         vertex 3.214565e+000 9.229813e-001 -8.541030e-001
      endloop
   endfacet
   facet normal -4.297066e-017 8.020839e-001 -5.972114e-001
      outer loop
         vertex 2.814565e+000 9.259807e-001 -8.498194e-001
         vertex 3.214565e+000 9.229813e-001 -8.541030e-001
         vertex 2.814565e+000 9.229813e-001 -8.541030e-001
      endloop
   endfacet
   facet normal -4.109168e-017 7.274188e-001 -6.861938e-001
      outer loop
         vertex 2.814565e+000 9.229813e-001 -8.541030e-001
         vertex 3.214565e+000 9.229813e-001 -8.541030e-001
         vertex 3.214565e+000 9.192836e-001 -8.578007e-001
      endloop
   endfacet
   facet normal -3.993825e-017 6.861938e-001 -7.274188e-001
      outer loop
         vertex 2.814565e+000 9.229813e-001 -8.541030e-001
         vertex 3.214565e+000 9.192836e-001 -8.578007e-001
         vertex 2.814565e+000 9.192836e-001 -8.578007e-001
      endloop
   endfacet
   facet normal -3.723858e-017 5.972114e-001 -8.020839e-001
      outer loop
         vertex 2.814565e+000 9.192836e-001 -8.578007e-001
         vertex 3.214565e+000 9.192836e-001 -8.578007e-001
         vertex 3.214565e+000 9.150000e-001 -8.608001e-001
      endloop
   endfacet
   facet normal -3.569234e-017 5.494540e-001 -8.355240e-001
      outer loop
         vertex 2.814565e+000 9.192836e-001 -8.578007e-001
         vertex 3.214565e+000 9.150000e-001 -8.608001e-001
         vertex 2.814565e+000 9.150000e-001 -8.608001e-001
      endloop
   endfacet
   facet normal -3.225402e-017 4.488580e-001 -8.936031e-001
      outer loop
         vertex 2.814565e+000 9.150000e-001 -8.608001e-001
         vertex 3.214565e+000 9.150000e-001 -8.608001e-001
         vertex 3.214565e+000 9.102606e-001 -8.630102e-001
      endloop
   endfacet
   facet normal -3.036193e-017 3.960194e-001 -9.182422e-001
      outer loop
         vertex 2.814565e+000 9.150000e-001 -8.608001e-001
         vertex 3.214565e+000 9.102606e-001 -8.630102e-001
         vertex 2.814565e+000 9.102606e-001 -8.630102e-001
      endloop
   endfacet
   facet normal -2.628942e-017 2.868663e-001 -9.579706e-001
      outer loop
         vertex 2.814565e+000 9.102606e-001 -8.630102e-001
         vertex 3.214565e+000 9.102606e-001 -8.630102e-001
         vertex 3.214565e+000 9.052094e-001 -8.643637e-001
      endloop
   endfacet
   facet normal -2.410899e-017 2.305518e-001 -9.730601e-001
      outer loop
         vertex 2.814565e+000 9.102606e-001 -8.630102e-001
         vertex 3.214565e+000 9.052094e-001 -8.643637e-001
         vertex 2.814565e+000 9.052094e-001 -8.643637e-001
      endloop
   endfacet
   facet normal -1.952604e-017 1.161583e-001 -9.932307e-001
      outer loop
         vertex 2.814565e+000 9.052094e-001 -8.643637e-001
         vertex 3.214565e+000 9.052094e-001 -8.643637e-001
         vertex 3.214565e+000 9.000000e-001 -8.648194e-001
      endloop
   endfacet
   facet normal 1.000000e+000 4.264996e-017 -1.467121e-017
      outer loop
         vertex 2.814565e+000 9.052094e-001 -8.052752e-001
         vertex 2.814565e+000 9.102606e-001 -8.066286e-001
         vertex 2.814565e+000 9.500000e-001 -7.848194e-001
      endloop
   endfacet
   facet normal 1.000000e+000 4.264996e-017 -1.467121e-017
      outer loop
         vertex 2.814565e+000 8.947905e-001 -8.643637e-001
         vertex 2.814565e+000 8.500000e-001 -8.848194e-001
         vertex 2.814565e+000 9.000000e-001 -8.648194e-001
      endloop
   endfacet
   facet normal 1.000000e+000 4.264996e-017 -1.467121e-017
      outer loop
         vertex 2.814565e+000 9.000000e-001 -8.648194e-001
         vertex 2.814565e+000 8.500000e-001 -8.848194e-001
         vertex 2.814565e+000 9.500000e-001 -8.848194e-001
      endloop
   endfacet
   facet normal 1.000000e+000 4.264996e-017 -1.467121e-017
      outer loop
         vertex 2.814565e+000 9.000000e-001 -8.648194e-001
         vertex 2.814565e+000 9.500000e-001 -8.848194e-001
         vertex 2.814565e+000 9.052094e-001 -8.643637e-001
      endloop
   endfacet
   facet normal 1.000000e+000 4.264996e-017 -1.467121e-017
      outer loop
         vertex 2.814565e+000 8.947905e-001 -8.643637e-001
         vertex 2.814565e+000 8.897394e-001 -8.630102e-001
         vertex 2.814565e+000 8.500000e-001 -8.848194e-001
      endloop
   endfacet
   facet normal 1.000000e+000 4.264996e-017 -1.467121e-017
      outer loop
         vertex 2.814565e+000 8.500000e-001 -8.848194e-001
         vertex 2.814565e+000 8.897394e-001 -8.630102e-001
         vertex 2.814565e+000 8.850000e-001 -8.608001e-001
      endloop
   endfacet
   facet normal 1.000000e+000 4.264996e-017 -1.467121e-017
      outer loop
         vertex 2.814565e+000 8.500000e-001 -8.848194e-001
         vertex 2.814565e+000 8.850000e-001 -8.608001e-001
         vertex 2.814565e+000 8.807164e-001 -8.578007e-001
      endloop
   endfacet
   facet normal 1.000000e+000 4.264996e-017 -1.467121e-017
      outer loop
         vertex 2.814565e+000 8.807164e-001 -8.578007e-001
         vertex 2.814565e+000 8.770187e-001 -8.541030e-001
         vertex 2.814565e+000 8.500000e-001 -8.848194e-001
      endloop
   endfacet
   facet normal 1.000000e+000 4.264996e-017 -1.467121e-017
      outer loop
         vertex 2.814565e+000 8.500000e-001 -8.848194e-001
         vertex 2.814565e+000 8.770187e-001 -8.541030e-001
         vertex 2.814565e+000 8.740193e-001 -8.498194e-001
      endloop
   endfacet
   facet normal 1.000000e+000 4.264996e-017 -1.467121e-017
      outer loop
         vertex 2.814565e+000 8.500000e-001 -8.848194e-001
         vertex 2.814565e+000 8.740193e-001 -8.498194e-001
         vertex 2.814565e+000 8.718092e-001 -8.450800e-001
      endloop
   endfacet
   facet normal 1.000000e+000 4.264996e-017 -1.467121e-017
      outer loop
         vertex 2.814565e+000 8.718092e-001 -8.245588e-001
         vertex 2.814565e+000 8.740193e-001 -8.198194e-001
         vertex 2.814565e+000 8.500000e-001 -7.848194e-001
      endloop
   endfacet
   facet normal 1.000000e+000 4.264996e-017 -1.467121e-017
      outer loop
         vertex 2.814565e+000 8.500000e-001 -7.848194e-001
         vertex 2.814565e+000 8.740193e-001 -8.198194e-001
         vertex 2.814565e+000 8.770187e-001 -8.155358e-001
      endloop
   endfacet
   facet normal 1.000000e+000 4.264996e-017 -1.467121e-017
      outer loop
         vertex 2.814565e+000 8.500000e-001 -7.848194e-001
         vertex 2.814565e+000 8.770187e-001 -8.155358e-001
         vertex 2.814565e+000 8.807164e-001 -8.118381e-001
      endloop
   endfacet
   facet normal 1.000000e+000 4.264996e-017 -1.467121e-017
      outer loop
         vertex 2.814565e+000 9.052094e-001 -8.052752e-001
         vertex 2.814565e+000 9.500000e-001 -7.848194e-001
         vertex 2.814565e+000 9.000000e-001 -8.048194e-001
      endloop
   endfacet
   facet normal 1.000000e+000 4.264996e-017 -1.467121e-017
      outer loop
         vertex 2.814565e+000 9.000000e-001 -8.048194e-001
         vertex 2.814565e+000 9.500000e-001 -7.848194e-001
         vertex 2.814565e+000 8.500000e-001 -7.848194e-001
      endloop
   endfacet
   facet normal 1.000000e+000 4.264996e-017 -1.467121e-017
      outer loop
         vertex 2.814565e+000 9.000000e-001 -8.048194e-001
         vertex 2.814565e+000 8.500000e-001 -7.848194e-001
         vertex 2.814565e+000 8.947905e-001 -8.052752e-001
      endloop
   endfacet
   facet normal 1.000000e+000 4.264996e-017 -1.467121e-017
      outer loop
         vertex 2.814565e+000 9.229813e-001 -8.155358e-001
         vertex 2.814565e+000 9.259807e-001 -8.198194e-001
         vertex 2.814565e+000 9.500000e-001 -7.848194e-001
      endloop
   endfacet
   facet normal 1.000000e+000 4.264996e-017 -1.467121e-017
      outer loop
         vertex 2.814565e+000 9.500000e-001 -7.848194e-001
         vertex 2.814565e+000 9.259807e-001 -8.198194e-001
         vertex 2.814565e+000 9.281908e-001 -8.245588e-001
      endloop
   endfacet
   facet normal 1.000000e+000 4.264996e-017 -1.467121e-017
      outer loop
         vertex 2.814565e+000 8.807164e-001 -8.118381e-001
         vertex 2.814565e+000 8.850000e-001 -8.088387e-001
         vertex 2.814565e+000 8.500000e-001 -7.848194e-001
      endloop
   endfacet
   facet normal 1.000000e+000 4.264996e-017 -1.467121e-017
      outer loop
         vertex 2.814565e+000 8.500000e-001 -7.848194e-001
         vertex 2.814565e+000 8.850000e-001 -8.088387e-001
         vertex 2.814565e+000 8.897394e-001 -8.066286e-001
      endloop
   endfacet
   facet normal 1.000000e+000 4.264996e-017 -1.467121e-017
      outer loop
         vertex 2.814565e+000 8.500000e-001 -7.848194e-001
         vertex 2.814565e+000 8.897394e-001 -8.066286e-001
         vertex 2.814565e+000 8.947905e-001 -8.052752e-001
      endloop
   endfacet
   facet normal 1.000000e+000 4.264996e-017 -1.467121e-017
      outer loop
         vertex 2.814565e+000 9.281908e-001 -8.245588e-001
         vertex 2.814565e+000 9.295442e-001 -8.296100e-001
         vertex 2.814565e+000 9.500000e-001 -7.848194e-001
      endloop
   endfacet
   facet normal 1.000000e+000 4.264996e-017 -1.467121e-017
      outer loop
         vertex 2.814565e+000 9.500000e-001 -7.848194e-001
         vertex 2.814565e+000 9.295442e-001 -8.296100e-001
         vertex 2.814565e+000 9.300000e-001 -8.348194e-001
      endloop
   endfacet
   facet normal 1.000000e+000 4.264996e-017 -1.467121e-017
      outer loop
         vertex 2.814565e+000 9.500000e-001 -7.848194e-001
         vertex 2.814565e+000 9.300000e-001 -8.348194e-001
         vertex 2.814565e+000 9.500000e-001 -8.848194e-001
      endloop
   endfacet
   facet normal 1.000000e+000 4.264996e-017 -1.467121e-017
      outer loop
         vertex 2.814565e+000 9.500000e-001 -8.848194e-001
         vertex 2.814565e+000 9.300000e-001 -8.348194e-001
         vertex 2.814565e+000 9.295442e-001 -8.400289e-001
      endloop
   endfacet
   facet normal 1.000000e+000 4.264996e-017 -1.467121e-017
      outer loop
         vertex 2.814565e+000 9.500000e-001 -8.848194e-001
         vertex 2.814565e+000 9.295442e-001 -8.400289e-001
         vertex 2.814565e+000 9.281908e-001 -8.450800e-001
      endloop
   endfacet
   facet normal 1.000000e+000 4.264996e-017 -1.467121e-017
      outer loop
         vertex 2.814565e+000 8.718092e-001 -8.450800e-001
         vertex 2.814565e+000 8.704557e-001 -8.400289e-001
         vertex 2.814565e+000 8.500000e-001 -8.848194e-001
      endloop
   endfacet
   facet normal 1.000000e+000 4.264996e-017 -1.467121e-017
      outer loop
         vertex 2.814565e+000 8.500000e-001 -8.848194e-001
         vertex 2.814565e+000 8.704557e-001 -8.400289e-001
         vertex 2.814565e+000 8.700000e-001 -8.348194e-001
      endloop
   endfacet
   facet normal 1.000000e+000 4.264996e-017 -1.467121e-017
      outer loop
         vertex 2.814565e+000 8.500000e-001 -8.848194e-001
         vertex 2.814565e+000 8.700000e-001 -8.348194e-001
         vertex 2.814565e+000 8.500000e-001 -7.848194e-001
      endloop
   endfacet
   facet normal 1.000000e+000 4.264996e-017 -1.467121e-017
      outer loop
         vertex 2.814565e+000 8.500000e-001 -7.848194e-001
         vertex 2.814565e+000 8.700000e-001 -8.348194e-001
         vertex 2.814565e+000 8.704557e-001 -8.296100e-001
      endloop
   endfacet
   facet normal 1.000000e+000 4.264996e-017 -1.467121e-017
      outer loop
         vertex 2.814565e+000 8.500000e-001 -7.848194e-001
         vertex 2.814565e+000 8.704557e-001 -8.296100e-001
         vertex 2.814565e+000 8.718092e-001 -8.245588e-001
      endloop
   endfacet
   facet normal 1.000000e+000 4.264996e-017 -1.467121e-017
      outer loop
         vertex 2.814565e+000 9.102606e-001 -8.066286e-001
         vertex 2.814565e+000 9.150000e-001 -8.088387e-001
         vertex 2.814565e+000 9.500000e-001 -7.848194e-001
      endloop
   endfacet
   facet normal 1.000000e+000 4.264996e-017 -1.467121e-017
      outer loop
         vertex 2.814565e+000 9.500000e-001 -7.848194e-001
         vertex 2.814565e+000 9.150000e-001 -8.088387e-001
         vertex 2.814565e+000 9.192836e-001 -8.118381e-001
      endloop
   endfacet
   facet normal 1.000000e+000 4.264996e-017 -1.467121e-017
      outer loop
         vertex 2.814565e+000 9.500000e-001 -7.848194e-001
         vertex 2.814565e+000 9.192836e-001 -8.118381e-001
         vertex 2.814565e+000 9.229813e-001 -8.155358e-001
      endloop
   endfacet
   facet normal 1.000000e+000 4.264996e-017 -1.467121e-017
      outer loop
         vertex 2.814565e+000 9.281908e-001 -8.450800e-001
         vertex 2.814565e+000 9.259807e-001 -8.498194e-001
         vertex 2.814565e+000 9.500000e-001 -8.848194e-001
      endloop
   endfacet
   facet normal 1.000000e+000 4.264996e-017 -1.467121e-017
      outer loop
         vertex 2.814565e+000 9.500000e-001 -8.848194e-001
         vertex 2.814565e+000 9.259807e-001 -8.498194e-001
         vertex 2.814565e+000 9.229813e-001 -8.541030e-001
      endloop
   endfacet
   facet normal 1.000000e+000 4.264996e-017 -1.467121e-017
      outer loop
         vertex 2.814565e+000 9.500000e-001 -8.848194e-001
         vertex 2.814565e+000 9.229813e-001 -8.541030e-001
         vertex 2.814565e+000 9.192836e-001 -8.578007e-001
      endloop
   endfacet
   facet normal 1.000000e+000 4.264996e-017 -1.467121e-017
      outer loop
         vertex 2.814565e+000 9.192836e-001 -8.578007e-001
         vertex 2.814565e+000 9.150000e-001 -8.608001e-001
         vertex 2.814565e+000 9.500000e-001 -8.848194e-001
      endloop
   endfacet
   facet normal 1.000000e+000 4.264996e-017 -1.467121e-017
      outer loop
         vertex 2.814565e+000 9.500000e-001 -8.848194e-001
         vertex 2.814565e+000 9.150000e-001 -8.608001e-001
         vertex 2.814565e+000 9.102606e-001 -8.630102e-001
      endloop
   endfacet
   facet normal 1.000000e+000 4.264996e-017 -1.467121e-017
      outer loop
         vertex 2.814565e+000 9.500000e-001 -8.848194e-001
         vertex 2.814565e+000 9.102606e-001 -8.630102e-001
         vertex 2.814565e+000 9.052094e-001 -8.643637e-001
      endloop
   endfacet
   facet normal 1.467121e-017 0.000000e+000 1.000000e+000
      outer loop
         vertex 2.809565e+000 9.500000e-001 -7.848194e-001
         vertex 2.809565e+000 8.500000e-001 -7.848194e-001
         vertex 2.814565e+000 9.500000e-001 -7.848194e-001
      endloop
   endfacet
   facet normal 1.467121e-017 0.000000e+000 1.000000e+000
      outer loop
         vertex 2.814565e+000 9.500000e-001 -7.848194e-001
         vertex 2.809565e+000 8.500000e-001 -7.848194e-001
         vertex 2.814565e+000 8.500000e-001 -7.848194e-001
      endloop
   endfacet
   facet normal -4.264996e-017 1.000000e+000 -5.551115e-017
      outer loop
         vertex 2.809565e+000 9.500000e-001 -8.848194e-001
         vertex 2.809565e+000 9.500000e-001 -7.848194e-001
         vertex 2.814565e+000 9.500000e-001 -8.848194e-001
      endloop
   endfacet
   facet normal -4.264996e-017 1.000000e+000 -5.551115e-017
      outer loop
         vertex 2.814565e+000 9.500000e-001 -8.848194e-001
         vertex 2.809565e+000 9.500000e-001 -7.848194e-001
         vertex 2.814565e+000 9.500000e-001 -7.848194e-001
      endloop
   endfacet
   facet normal -1.467121e-017 0.000000e+000 -1.000000e+000
      outer loop
         vertex 2.809565e+000 8.500000e-001 -8.848194e-001
         vertex 2.809565e+000 9.500000e-001 -8.848194e-001
         vertex 2.814565e+000 8.500000e-001 -8.848194e-001
      endloop
   endfacet
   facet normal -1.467121e-017 0.000000e+000 -1.000000e+000
      outer loop
         vertex 2.814565e+000 8.500000e-001 -8.848194e-001
         vertex 2.809565e+000 9.500000e-001 -8.848194e-001
         vertex 2.814565e+000 9.500000e-001 -8.848194e-001
      endloop
   endfacet
   facet normal 4.264996e-017 -1.000000e+000 5.551115e-017
      outer loop
         vertex 2.809565e+000 8.500000e-001 -7.848194e-001
         vertex 2.809565e+000 8.500000e-001 -8.848194e-001
         vertex 2.814565e+000 8.500000e-001 -7.848194e-001
      endloop
   endfacet
   facet normal 4.264996e-017 -1.000000e+000 5.551115e-017
      outer loop
         vertex 2.814565e+000 8.500000e-001 -7.848194e-001
         vertex 2.809565e+000 8.500000e-001 -8.848194e-001
         vertex 2.814565e+000 8.500000e-001 -8.848194e-001
      endloop
   endfacet
   facet normal -1.000000e+000 -4.264996e-017 1.467121e-017
      outer loop
         vertex 2.809565e+000 9.500000e-001 -8.848194e-001
         vertex 2.809565e+000 8.500000e-001 -8.848194e-001
         vertex 2.809565e+000 9.500000e-001 -7.848194e-001
      endloop
   endfacet
   facet normal -1.000000e+000 -4.264996e-017 1.467121e-017
      outer loop
         vertex 2.809565e+000 9.500000e-001 -7.848194e-001
         vertex 2.809565e+000 8.500000e-001 -8.848194e-001
         vertex 2.809565e+000 8.500000e-001 -7.848194e-001
      endloop
   endfacet
endsolid